<svg viewBox="0 0 627 213" fill="none" xmlns="http://www.w3.org/2000/svg">
<g clip-path="url(#clip0_115_2287)">
<path d="M263.871 105.326H252.994L245.948 91.7461L243.089 93.4413V105.326H233.408V69.8016H243.089V85.2261C243.575 84.2761 244.565 82.7485 246.042 80.6807L253.536 69.783H264.077L252.845 85.7105L263.89 105.326H263.871Z" fill="#1731A6"/>
<path d="M280.486 105.811C275.888 105.811 272.319 104.6 269.777 102.159C267.235 99.7191 265.964 96.2542 265.964 91.746C265.964 87.2379 267.142 83.5308 269.497 81.0346C271.851 78.557 275.215 77.3088 279.589 77.3088C283.962 77.3088 286.971 78.3893 289.232 80.5502C291.494 82.7112 292.634 85.8221 292.634 89.9018V94.1305H275.589C275.645 95.6767 276.225 96.8689 277.29 97.7445C278.355 98.62 279.813 99.0485 281.644 99.0485C283.327 99.0485 284.859 98.8994 286.261 98.5828C287.662 98.2661 289.195 97.7258 290.84 96.9621V103.799C289.344 104.563 287.793 105.084 286.205 105.382C284.616 105.68 282.71 105.811 280.504 105.811H280.486ZM279.925 83.773C278.804 83.773 277.869 84.1269 277.103 84.8348C276.337 85.5427 275.907 86.6418 275.776 88.1507H283.962C283.925 86.8281 283.551 85.7662 282.822 84.9652C282.093 84.1642 281.121 83.773 279.906 83.773H279.925Z" fill="#1731A6"/>
<path d="M316.051 105.326L314.22 101.675H314.033C312.743 103.259 311.435 104.358 310.108 104.935C308.781 105.513 307.043 105.811 304.931 105.811C302.333 105.811 300.277 105.028 298.782 103.482C297.287 101.936 296.54 99.7378 296.54 96.9249C296.54 94.1119 297.568 91.802 299.605 90.3676C301.66 88.9332 304.613 88.1322 308.501 87.9459L313.117 87.7968V87.4056C313.117 85.1329 311.996 83.9966 309.753 83.9966C307.734 83.9966 305.174 84.6859 302.072 86.0457L299.324 79.7679C302.539 78.1099 306.613 77.2903 311.51 77.2903C315.061 77.2903 317.789 78.1658 319.733 79.9169C321.676 81.668 322.648 84.1084 322.648 87.2566V105.308H316.032L316.051 105.326ZM308.987 99.1044C310.145 99.1044 311.136 98.7319 311.939 98.0053C312.762 97.2788 313.173 96.3288 313.173 95.1552V93.0129L310.986 93.106C307.847 93.2178 306.277 94.3728 306.277 96.5523C306.277 98.2289 307.174 99.0858 308.987 99.0858V99.1044Z" fill="#1731A6"/>
<path d="M342.664 98.3034C343.954 98.3034 345.486 97.9868 347.281 97.3534V104.283C345.991 104.842 344.776 105.233 343.617 105.457C342.459 105.699 341.094 105.811 339.525 105.811C336.329 105.811 334.011 105.028 332.591 103.464C331.171 101.899 330.479 99.4957 330.479 96.2543V84.9095H327.134V81.0533L331.376 78.0727L333.843 72.2979H340.085V77.8119H346.869V84.9281H340.085V95.6396C340.085 97.4279 340.945 98.3221 342.664 98.3221V98.3034Z" fill="#1731A6"/>
<path d="M396.19 105.326H386.509V90.8333H375.314V105.326H365.633V69.8015H375.314V82.972H386.509V69.8015H396.19V105.326Z" fill="#1731A6"/>
<path d="M429.718 91.504C429.718 96.0122 428.503 99.5144 426.074 102.048C423.644 104.581 420.243 105.829 415.869 105.829C411.496 105.829 408.338 104.544 405.852 101.973C403.366 99.4026 402.133 95.919 402.133 91.5227C402.133 87.1263 403.348 83.5496 405.777 81.0534C408.207 78.5758 411.608 77.3276 416 77.3276C418.71 77.3276 421.121 77.9051 423.196 79.0601C425.27 80.2151 426.877 81.8544 428.017 83.9967C429.139 86.139 429.718 88.6539 429.718 91.5227V91.504ZM411.814 91.504C411.814 93.8699 412.132 95.6769 412.767 96.9064C413.403 98.1545 414.468 98.7692 415.963 98.7692C417.458 98.7692 418.486 98.1545 419.103 96.9064C419.719 95.6582 420.018 93.8699 420.018 91.504C420.018 89.1382 419.701 87.3871 419.084 86.1762C418.467 84.984 417.402 84.3693 415.907 84.3693C414.412 84.3693 413.403 84.9654 412.767 86.1576C412.132 87.3499 411.814 89.1196 411.814 91.4854V91.504Z" fill="#1731A6"/>
<path d="M452.594 105.327V90.3118C452.594 88.4862 452.332 87.1077 451.809 86.1762C451.285 85.2448 450.426 84.7791 449.267 84.7791C447.66 84.7791 446.501 85.4125 445.772 86.6979C445.062 87.9832 444.707 90.1814 444.707 93.2924V105.345H435.175V77.812H442.371L443.567 81.221H444.127C444.95 79.917 446.071 78.9483 447.51 78.2963C448.949 77.6443 450.594 77.3276 452.463 77.3276C455.528 77.3276 457.901 78.2032 459.602 79.9729C461.303 81.7426 462.144 84.2202 462.144 87.443V105.364H452.612L452.594 105.327Z" fill="#1731A6"/>
<path d="M494.663 77.7932V82.3945L490.887 83.773C491.411 84.7044 491.672 85.8035 491.672 87.0516C491.672 90.0136 490.626 92.3235 488.533 93.9628C486.439 95.6022 483.318 96.4218 479.188 96.4218C478.16 96.4218 477.357 96.3659 476.759 96.2355C476.534 96.664 476.422 97.0552 476.422 97.4278C476.422 97.8935 476.796 98.2661 477.562 98.5082C478.328 98.7504 479.319 98.8808 480.552 98.8808H485.131C491.317 98.8808 494.42 101.489 494.42 106.686C494.42 110.039 492.981 112.647 490.121 114.51C487.262 116.373 483.225 117.305 478.048 117.305C474.123 117.305 471.114 116.653 468.984 115.349C466.872 114.045 465.807 112.163 465.807 109.723C465.807 106.425 467.862 104.32 471.955 103.352C471.114 102.998 470.367 102.42 469.75 101.619C469.133 100.818 468.816 100.036 468.816 99.2534C468.816 98.3965 469.059 97.6327 469.526 96.9807C469.993 96.3287 470.984 95.5463 472.479 94.6335C471.04 94.0001 469.918 93.0128 469.096 91.6715C468.274 90.3303 467.862 88.6909 467.862 86.7536C467.862 83.7544 468.89 81.4258 470.927 79.7865C472.983 78.1285 475.899 77.3088 479.711 77.3088C480.216 77.3088 481.076 77.3647 482.328 77.4765C483.561 77.5883 484.477 77.7 485.056 77.7932H494.681H494.663ZM473.843 108.754C473.843 109.536 474.273 110.151 475.114 110.635C475.955 111.12 477.095 111.343 478.497 111.343C480.795 111.343 482.646 111.064 484.047 110.486C485.43 109.909 486.14 109.164 486.14 108.27C486.14 107.543 485.711 107.022 484.87 106.723C484.029 106.425 482.814 106.276 481.244 106.276H477.506C476.478 106.276 475.618 106.519 474.908 106.984C474.198 107.45 473.843 108.046 473.843 108.754ZM476.833 86.8094C476.833 89.6224 477.824 91.0382 479.786 91.0382C480.702 91.0382 481.393 90.6842 481.898 89.995C482.403 89.3057 482.646 88.2625 482.646 86.8653C482.646 84.0152 481.692 82.5807 479.786 82.5807C477.88 82.5807 476.833 83.9965 476.833 86.8094Z" fill="#1731A6"/>
<path d="M246.659 131.407L252.807 118.236H263.236L251.499 139.883V153.761H241.799V140.181L230.063 118.236H240.547L246.64 131.407H246.659Z" fill="#1731A6"/>
<path d="M292.914 139.938C292.914 144.447 291.699 147.949 289.27 150.482C286.84 152.997 283.439 154.264 279.065 154.264C274.692 154.264 271.534 152.978 269.067 150.408C266.581 147.837 265.348 144.353 265.348 139.957C265.348 135.561 266.562 131.984 268.992 129.488C271.422 127.01 274.823 125.762 279.215 125.762C281.925 125.762 284.336 126.339 286.41 127.494C288.485 128.649 290.092 130.289 291.232 132.431C292.353 134.573 292.933 137.088 292.933 139.957L292.914 139.938ZM275.01 139.938C275.01 142.304 275.328 144.111 275.963 145.341C276.598 146.589 277.664 147.204 279.159 147.204C280.654 147.204 281.682 146.589 282.299 145.341C282.915 144.093 283.214 142.304 283.214 139.938C283.214 137.573 282.897 135.821 282.28 134.611C281.663 133.418 280.598 132.804 279.103 132.804C277.608 132.804 276.598 133.4 275.963 134.592C275.328 135.784 275.01 137.554 275.01 139.92V139.938Z" fill="#1731A6"/>
<path d="M318.032 153.761L316.836 150.333H316.275C315.472 151.6 314.369 152.569 312.949 153.239C311.528 153.91 309.865 154.245 307.94 154.245C304.894 154.245 302.539 153.37 300.838 151.6C299.156 149.849 298.296 147.353 298.296 144.149V126.209H307.828V141.261C307.828 143.068 308.09 144.428 308.594 145.341C309.099 146.272 309.94 146.719 311.117 146.719C312.762 146.719 313.921 146.067 314.631 144.782C315.341 143.497 315.677 141.317 315.677 138.262V126.209H325.209V153.742H318.013L318.032 153.761Z" fill="#1731A6"/>
<path d="M345.337 146.738C346.626 146.738 348.159 146.421 349.953 145.788V152.718C348.663 153.277 347.449 153.668 346.29 153.891C345.131 154.134 343.767 154.245 342.197 154.245C339.001 154.245 336.684 153.463 335.263 151.898C333.843 150.333 333.133 147.93 333.133 144.689V133.344H329.788V129.488L334.03 126.507L336.497 120.732H342.739V126.247H349.523V133.363H342.739V144.074C342.739 145.862 343.599 146.757 345.318 146.757L345.337 146.738Z" fill="#1731A6"/>
<path d="M372.156 153.761V138.746C372.156 135.058 371.053 133.214 368.866 133.214C367.315 133.214 366.156 133.866 365.409 135.17C364.661 136.474 364.306 138.634 364.306 141.671V153.78H354.775V115.963H364.306V121.328C364.306 123.75 364.175 126.526 363.914 129.637H364.362C365.278 128.202 366.362 127.215 367.614 126.619C368.866 126.041 370.324 125.743 371.969 125.743C375.052 125.743 377.463 126.638 379.183 128.407C380.902 130.177 381.762 132.673 381.762 135.859V153.78H372.174L372.156 153.761Z" fill="#1731A6"/>
<path d="M435.699 151.898H423.065L410.038 126.861H409.814C410.132 130.792 410.281 133.809 410.281 135.877V151.898H401.741V116.373H414.318L427.289 141.075H427.438C427.214 137.498 427.102 134.61 427.102 132.45V116.392H435.68V151.917L435.699 151.898Z" fill="#1731A6"/>
<path d="M456.182 152.382C451.584 152.382 448.015 151.171 445.473 148.731C442.931 146.291 441.66 142.826 441.66 138.318C441.66 133.809 442.838 130.102 445.193 127.606C447.547 125.128 450.912 123.88 455.285 123.88C459.658 123.88 462.667 124.961 464.928 127.122C467.19 129.283 468.33 132.394 468.33 136.473V140.702H451.285C451.341 142.248 451.921 143.44 452.986 144.316C454.051 145.192 455.509 145.62 457.341 145.62C459.023 145.62 460.555 145.471 461.957 145.154C463.358 144.838 464.891 144.297 466.536 143.534V150.37C465.04 151.134 463.489 151.656 461.901 151.954C460.312 152.252 458.406 152.382 456.201 152.382H456.182ZM455.621 130.345C454.5 130.345 453.565 130.698 452.799 131.406C452.033 132.114 451.603 133.213 451.472 134.722H459.658C459.621 133.4 459.247 132.338 458.518 131.537C457.789 130.736 456.817 130.345 455.602 130.345H455.621Z" fill="#1731A6"/>
<path d="M487.243 144.875C488.533 144.875 490.065 144.558 491.859 143.925V150.855C490.57 151.414 489.355 151.805 488.196 152.028C487.038 152.271 485.673 152.382 484.103 152.382C480.908 152.382 478.59 151.6 477.17 150.035C475.749 148.47 475.039 146.067 475.039 142.826V131.481H471.694V127.625L475.936 124.644L478.403 118.869H484.645V124.383H491.429V131.5H484.645V142.211C484.645 143.999 485.505 144.894 487.224 144.894L487.243 144.875Z" fill="#1731A6"/>
<path d="M520.454 151.898L517.333 138.783L516.604 134.816L516.118 131.63H515.968C515.165 136.175 514.641 139.026 514.361 140.218L511.558 151.917H501.54L494.009 124.384H503.39L505.633 134.965C506.343 138.597 506.754 141.615 506.885 144H507.035C507.091 142.509 507.539 139.678 508.38 135.486L510.941 124.384H521.481L523.818 135.635C524.565 139.212 525.032 142.006 525.238 144H525.388C525.481 142.77 525.649 141.224 525.873 139.398C526.098 137.554 526.359 136.082 526.621 134.965L529.051 124.384H538.246L530.658 151.917H520.472L520.454 151.898Z" fill="#1731A6"/>
<path d="M568.503 138.076C568.503 142.584 567.288 146.086 564.859 148.619C562.429 151.134 559.028 152.401 554.655 152.401C550.281 152.401 547.123 151.116 544.637 148.545C542.152 145.974 540.918 142.491 540.918 138.094C540.918 133.698 542.133 130.121 544.563 127.625C546.992 125.147 550.394 123.899 554.785 123.899C557.495 123.899 559.906 124.477 561.981 125.632C564.055 126.787 565.662 128.426 566.803 130.568C567.924 132.711 568.503 135.225 568.503 138.094V138.076ZM550.599 138.076C550.599 140.441 550.917 142.248 551.552 143.478C552.188 144.726 553.253 145.341 554.748 145.341C556.243 145.341 557.271 144.726 557.888 143.478C558.505 142.23 558.804 140.441 558.804 138.076C558.804 135.71 558.486 133.959 557.869 132.748C557.252 131.556 556.187 130.941 554.692 130.941C553.197 130.941 552.188 131.537 551.552 132.729C550.917 133.921 550.599 135.691 550.599 138.057V138.076Z" fill="#1731A6"/>
<path d="M590.631 123.88C591.453 123.88 592.257 123.936 592.986 124.067L593.528 124.16L592.668 133.12C591.883 132.934 590.799 132.822 589.416 132.822C587.342 132.822 585.828 133.288 584.875 134.238C583.94 135.188 583.454 136.548 583.454 138.336V151.879H573.923V124.346H581.025L582.52 128.743H582.987C583.791 127.289 584.894 126.097 586.314 125.203C587.734 124.309 589.173 123.862 590.612 123.862L590.631 123.88Z" fill="#1731A6"/>
<path d="M606.629 136.418C607.788 134.592 608.76 133.158 609.582 132.133L615.768 124.365H626.402L616.815 136.082L627 151.898H616.104L610.049 142.025L606.947 144.391V151.898H597.359V114.082H606.947V128.947C606.947 131.5 606.76 133.977 606.405 136.418H606.592H606.629Z" fill="#1731A6"/>
<path d="M35.6426 86.665C35.9604 85.9758 35.68 85.361 35.381 84.7463C34.9885 83.9266 34.8951 83.0883 35.381 82.2687C35.5305 82.0079 35.7548 81.7843 36.0725 81.8588C36.4463 81.952 36.4276 82.2873 36.3341 82.5667C36.1846 83.1256 36.3341 83.5913 36.764 83.9452C37.2686 84.3737 36.82 85.1002 37.2873 85.5287C37.2873 85.7709 36.7453 85.9012 37.1378 86.2179C37.8106 86.7582 37.7732 87.5592 37.8853 88.2857C37.9975 89.0309 38.2965 89.5338 39.0814 89.6456C39.6982 90.3535 40.2962 91.0986 41.2307 91.4153C41.6418 92.235 42.5576 92.5331 43.137 93.1851C43.3612 93.8557 43.4734 94.5449 43.7537 95.1969C44.4265 96.7617 45.9964 97.805 46.258 99.5933C46.2954 99.8727 46.5758 100.134 46.7813 100.376C47.043 100.674 47.2486 101.121 47.7719 100.953C48.3325 100.767 48.2391 100.264 48.2204 99.8169C48.5007 99.7051 48.7811 99.5374 48.8184 99.2394C48.9866 97.9726 49.5473 96.799 49.7342 95.5136C50.0332 93.4086 49.9772 91.2104 51.1733 89.3103C51.3788 88.975 51.3602 88.5651 51.0798 88.2298C50.7247 87.7827 50.7621 87.2984 51.0798 86.8886C51.9021 85.8267 51.9582 84.5227 52.2946 83.2932C52.6871 81.8402 52.2012 80.1264 53.5468 78.9528C53.6215 78.8969 53.6215 78.692 53.5842 78.5802C52.9114 77.2389 53.5655 76.1026 54.1635 74.9662C54.313 74.6868 54.3691 74.426 53.9953 74.2583C54.2383 72.619 54.7429 71.0542 55.5091 69.5826C55.64 69.3217 55.8455 69.0609 55.7521 68.7815C55.3596 67.403 55.995 66.3039 56.6305 65.1862C56.9108 64.7019 57.0977 64.1616 56.9856 63.6214C56.6492 62.0007 57.3407 60.5663 57.864 59.1505C58.4059 57.7347 58.7797 56.2258 59.5647 54.9032C60.144 53.9159 60.1814 52.9099 60.1627 51.8108C60.1253 50.395 60.9663 49.1283 61.4149 47.8057C62.0877 45.831 62.7231 43.8378 63.3772 41.8631C63.4707 41.6023 63.4894 41.3043 63.4894 41.0062C63.4894 39.2924 63.8818 37.653 64.4986 36.051C65.0593 34.5979 65.676 33.1822 65.7134 31.5428C65.7694 29.6986 66.5918 28.0034 67.1151 26.2709C67.7692 24.1473 68.2551 21.9864 68.5354 19.7882C68.6289 19.0989 68.9466 18.5214 69.1335 17.888C69.3391 17.7763 69.4138 17.6272 69.3577 17.4037C69.5073 17.2733 69.5446 17.1243 69.5259 16.938C70.4043 15.9693 70.2922 14.7025 70.4978 13.5476C70.6847 13.2309 70.6473 12.8956 70.5912 12.5603C70.7781 12.2622 70.7968 11.9455 70.722 11.6288L70.7781 11.219C71.3949 9.7287 71.9368 8.20115 72.2545 6.61771C72.4414 6.13337 72.9834 5.83531 72.9274 5.23919C73.0769 5.14605 73.1143 5.03428 73.0769 4.86662L73.189 4.68033C73.3946 4.62445 73.5067 4.49405 73.5254 4.28913C73.5815 4.28913 73.6189 4.25188 73.6002 4.17736C73.8057 4.08422 73.9179 3.93519 73.9179 3.69302C74.2169 3.39496 74.572 3.17141 74.7589 2.78021C74.9458 2.7057 75.0579 2.55667 75.0766 2.35175C75.5438 1.96055 76.0111 1.55072 76.4783 1.15952C77.1698 1.04775 77.9547 1.27129 78.5154 0.656546C78.721 0.656546 78.8705 0.563402 79.0013 0.395744C79.3938 0.339858 79.7676 0.209458 80.16 0.32123L80.4404 0.470259C81.1319 0.917347 81.8047 1.43895 82.6831 1.45758C83.1316 1.73701 83.711 1.45758 84.1408 1.79289C84.1408 2.18409 84.0474 2.5753 84.3838 2.87335C84.2716 3.07827 84.2903 3.30181 84.3838 3.50673C84.1969 3.84204 84.2529 4.21462 84.2529 4.58719C84.2529 4.64308 84.2156 4.69896 84.1595 4.73622C84.1034 4.77348 84.0847 4.82936 84.1034 4.88525L83.9726 5.14605L83.8979 5.29508L83.7483 5.49999C83.1316 5.72354 83.2624 6.24514 83.3372 6.6736C83.4306 7.17657 83.4867 7.66092 83.4119 8.16389C82.9634 8.40606 82.4401 8.59235 82.2532 9.13258L82.0476 9.3375V9.30024L81.842 9.65418V9.69144L81.7112 9.87773C81.7112 9.87773 81.6738 9.95224 81.6365 9.9895C81.5991 10.064 81.543 10.1385 81.5243 10.2317C81.4309 10.6415 81.5243 11.3308 80.9263 11.2004C80.4217 11.1072 80.5899 10.4738 80.6833 10.0454C80.702 9.95224 80.7768 9.8591 80.7581 9.76596C80.7581 9.00218 81.0945 8.25703 80.7581 7.49326L80.4591 7.26972C80.2161 7.3256 79.861 7.10206 79.7489 7.53052C79.7489 7.56777 79.6928 7.60503 79.6554 7.60503C79.5994 7.60503 79.5807 7.62366 79.562 7.67955L79.3003 7.82858C79.3003 7.82858 79.2069 7.82858 79.1882 7.88446L78.9266 8.03349L78.8144 8.21978L78.7023 8.42469C78.4967 8.53646 78.3846 8.68549 78.3472 8.90904L78.179 9.13258C78.0669 9.18847 78.0108 9.30024 78.0482 9.43064L77.8613 9.78458L77.637 10.1758C77.4314 10.2317 77.394 10.3807 77.3754 10.567C77.3754 10.6229 77.338 10.6415 77.2819 10.6601C76.7026 11.2749 76.3661 11.9828 76.254 12.8024L76.1606 13.026C75.413 15.3359 74.8897 17.7018 74.6654 20.1235C73.7123 20.1421 73.3759 20.6823 73.4693 21.5765C73.5067 21.9305 73.5254 22.2844 73.5441 22.6197L73.3572 22.9178V22.8805L73.1703 23.2717C72.7778 23.6816 72.5723 24.1659 72.6283 24.7248C72.647 25.0228 72.6657 25.3954 72.3667 25.4513C71.7499 25.5631 71.5631 26.1033 71.1706 26.4386L71.1145 26.4945L70.9276 26.6808H70.9463C70.5725 26.9416 70.4978 27.3887 70.5352 27.7799C70.6099 28.8976 70.3296 29.9594 69.9371 30.9281C69.6007 31.7478 69.4138 32.5488 69.3204 33.3871L69.1709 33.8528C68.8344 34.095 68.7223 34.4862 68.6849 34.8587C68.5728 35.7902 68.2177 36.6285 67.7692 37.4481C67.4701 38.0256 67.3019 38.6962 67.3019 39.3669L67.2085 39.7767L67.3393 40.3542C67.6197 41.2484 66.76 41.8631 66.7973 42.7014L66.5731 43.2044C65.7321 44.2476 65.2648 45.3839 65.5825 46.7438C66.0124 48.9606 66.0124 51.1961 65.5825 53.4129C65.4143 54.2698 65.4517 55.1453 66.218 55.7974C66.5544 56.0954 66.6105 56.5239 66.4796 56.9523C66.3675 57.3249 66.2927 57.7161 66.4049 58.0887C67.2459 60.9761 66.3301 63.7518 65.8442 66.5461C65.433 68.9864 64.3304 71.2405 63.751 73.625C63.6015 74.2211 63.6389 74.7054 64.1622 75.078C64.536 75.3202 64.7229 75.6927 64.5546 76.084C63.8445 77.7419 64.5546 79.1391 65.2835 80.5548C65.3957 80.7597 65.3583 81.2441 65.8068 81.0205C66.1058 80.8715 66.274 80.5176 66.0498 80.2009C65.676 79.6793 65.9376 79.2881 66.1058 78.7851C66.5544 77.5556 67.3767 76.3075 67.2272 75.0407C67.0403 73.4759 67.6757 72.321 68.3859 71.1101C68.5354 70.8493 68.741 70.4581 69.1148 70.6444C69.4325 70.7934 69.2643 71.1474 69.2082 71.4268C68.9092 72.8612 68.498 74.277 68.3485 75.7486C67.3954 77.4997 66.8534 79.3998 66.6478 81.3559C66.5544 82.2314 66.274 82.9207 65.7507 83.6286C65.4143 84.0943 64.8911 84.5972 65.2275 85.3051C65.1527 85.5846 65.3583 85.5287 65.5078 85.5473H65.4891C65.5265 85.7522 65.5265 85.9758 65.5825 86.1807C65.6199 86.3297 65.7321 86.4974 65.9376 86.4042C66.1245 86.3111 66.0498 86.1248 66.0311 85.9758C66.1993 85.8081 66.3301 85.6032 66.2367 85.3424L66.2927 85.1561C66.4236 84.8394 66.6852 84.56 66.6291 84.1688C67.3206 82.4363 67.4328 80.4989 68.3859 78.841L68.4794 78.338C68.5915 78.0027 68.8531 77.7233 68.7597 77.3321C68.7597 77.2948 68.7597 77.2576 68.7971 77.2203L69.3204 77.183L69.4512 77.4811C69.3577 77.9282 69.6941 77.9282 69.9745 77.9654V78.5616C69.825 78.5802 69.7689 78.692 69.7502 78.841C69.2643 79.0832 69.04 79.493 68.8531 80.0146C68.1056 81.9333 67.5449 83.8707 67.1337 85.9013C66.8534 87.2611 66.5918 88.5838 66.5357 89.9809L66.4796 90.2976C65.919 91.0241 65.6199 91.8624 65.4143 92.738C65.3022 93.2037 65.134 93.8184 64.6294 93.8184C63.5641 93.8184 63.6763 94.7499 63.3585 95.2715C63.1903 95.5323 63.4707 96.2588 64.0874 96.0911C64.5733 95.9607 64.3864 96.2215 64.4612 96.4264C64.5733 96.799 64.4238 97.1343 64.3678 97.4696C63.9005 100.022 63.4146 102.574 62.9287 105.126C62.8726 105.424 62.9848 105.908 62.5923 105.908C62.2746 105.908 62.2185 105.461 62.1811 105.126C62.1811 104.958 62.1811 104.809 62.1624 104.642C62.1064 104.12 62.3493 103.207 61.8074 103.207C61.1532 103.207 61.3401 104.12 61.3588 104.66C61.4336 106.002 61.1906 107.306 60.7234 108.516C60.144 110.044 60.2562 111.311 61.4336 112.447C62.3867 113.379 63.209 114.347 63.4146 115.744C63.8258 118.427 64.4051 121.091 64.7415 123.792C65.1527 126.903 65.919 129.977 65.5639 133.144C65.2275 136.348 66.3862 139.123 67.9 141.806C68.5915 143.017 69.582 144.06 69.5073 145.606C69.5073 145.997 69.7689 146.314 70.1614 146.463L70.1987 146.519C70.2922 146.985 70.4043 147.45 70.1053 147.897C69.9371 148.158 69.9558 148.475 70.1614 148.698C70.5538 149.127 70.6286 149.667 70.7407 150.189C71.1519 152.052 71.8247 153.821 72.4227 155.628C72.4041 155.703 72.4228 155.74 72.4788 155.759C72.6283 156.429 72.591 157.081 72.3293 157.733C72.1237 158.255 71.9181 158.832 72.2545 159.41C72.591 159.987 72.6283 160.621 72.7592 161.254C73.0021 162.316 72.8526 163.49 73.1703 164.458C73.9366 166.75 74.2169 169.153 74.9458 171.444C75.1327 172.022 75.0018 172.729 75.3756 173.214C76.1045 174.108 76.1793 175.151 76.1793 176.213C76.1793 176.604 76.1793 176.977 76.3288 177.349C77.4501 180.591 79.1134 183.609 79.9544 186.962C80.403 188.713 81.001 190.445 81.6178 192.159C81.9542 193.128 81.9168 194.283 82.8139 195.047C83.0568 195.251 83.1129 195.605 82.8139 195.903C82.2906 196.462 82.4775 196.909 83.0381 197.338C83.468 197.655 83.5988 198.139 83.2624 198.623C82.926 199.108 83.0381 199.499 83.3185 199.946C83.7296 200.598 84.1595 201.231 84.3838 201.995C84.7202 203.113 85.2061 204.137 85.9536 205.069C86.8507 206.186 86.8881 207.006 86.1592 208.254C85.9723 208.552 85.8415 208.832 86.0845 209.13C86.7573 209.949 86.2714 210.303 85.5238 210.564C84.0847 210.303 83.225 209.297 82.384 208.217C81.6738 207.286 81.3561 205.982 79.9918 205.628C79.6928 205.553 79.4872 205.218 79.3938 204.901C78.9079 203.429 78.422 201.939 77.9547 200.449C77.8613 200.169 77.8052 199.834 77.5436 199.722C75.6933 198.847 75.7681 196.909 75.17 195.382C74.6841 194.171 74.5159 192.886 73.2638 192.085C72.5723 191.637 72.1985 190.874 72.2359 189.924C72.2919 188.21 71.3575 186.738 70.8155 185.192C70.423 184.093 69.8063 183.05 69.2269 182.025C68.9653 181.559 68.8344 181.094 68.7784 180.572C68.5915 178.989 67.6757 177.647 67.1898 176.157C66.517 174.108 65.3022 172.245 64.6855 170.159C64.592 169.861 64.3864 169.6 64.1996 169.339C64.0314 169.097 63.7884 168.855 63.8258 168.575C64.1435 166.452 62.611 164.999 61.8821 163.266C61.8447 163.173 61.77 163.098 61.7513 163.005C61.3401 161.273 60.4804 159.838 59.0974 158.721C58.9292 158.59 58.8358 158.274 58.8171 158.031C58.6863 156.69 57.7892 155.796 56.9669 154.846C56.6492 154.473 56.3128 154.138 56.0511 153.728C54.4439 151.083 52.3507 148.754 50.9864 145.96C51.0424 145.736 50.9303 145.606 50.7621 145.513C50.7995 145.252 50.7434 145.01 50.5565 144.805C50.5005 144.656 50.4631 144.507 50.3883 144.377C49.7529 142.849 48.8745 141.359 48.7437 139.701C48.5942 137.689 48.2578 135.658 47.641 133.814C46.744 131.076 45.8843 128.151 43.137 126.474H43.1743C42.1091 125.003 41.3054 123.382 40.6513 121.706C40.1654 120.495 39.5487 119.805 38.2591 119.805C37.8853 119.805 37.5863 119.712 37.4929 119.377C37.306 118.799 36.8574 118.725 36.3715 118.65C34.9885 118.446 33.8111 118.203 32.9514 116.75C31.8861 114.962 30.9517 113.248 31.1012 111.106C31.1946 109.634 31.2133 108.088 30.7087 106.728C29.9238 104.66 29.5313 102.481 28.8024 100.413C28.466 99.4443 28.5782 98.3079 27.6811 97.5069C27.2699 97.1343 26.6532 97.1716 26.3355 96.65C25.7748 95.7186 24.3544 95.4019 24.3918 94.0233C24.3918 94.0233 24.3357 94.0047 24.2984 93.9861C24.2423 93.7067 24.2984 93.3341 24.1302 93.1664C23.121 92.086 22.6537 90.7447 22.1491 89.4034C22.2052 89.1799 22.0744 89.0309 21.8875 88.9377C21.9996 87.7641 21.1773 86.9445 20.6727 86.0689C19.4766 84.0384 19.2523 81.8588 18.9533 79.5861C18.673 77.4625 18.8785 75.4506 19.2336 73.4014C19.4392 72.2092 19.9812 71.7807 21.1399 71.8925C21.7006 71.9484 21.6819 72.3582 21.6632 72.7494C21.5885 73.6995 21.9249 74.4446 22.7285 74.9662C22.7285 75.227 22.8406 75.4506 22.9901 75.6741C23.5882 76.5497 24.1675 77.4252 24.7095 78.338C24.9151 78.6733 25.3076 79.0459 24.8404 79.4371C24.2797 79.8842 24.5039 80.3313 24.8404 80.6666C25.7561 81.5794 26.1673 82.6785 26.3729 83.908C26.4476 84.2992 26.6532 84.6904 26.8401 85.063C27.6998 86.7395 28.7837 88.2857 29.5687 90.0182C29.9051 90.7633 30.1854 91.5085 29.8116 92.3281C29.6621 92.6635 29.7369 92.9429 30.0172 93.1851C30.8769 93.8929 31.7366 94.6195 32.615 95.346C33.1009 95.8117 33.3439 95.7372 33.6055 95.0293C33.699 94.7871 33.6803 94.4518 33.998 94.4332C34.3718 94.3959 34.4278 94.7499 34.5213 95.0107C34.5774 95.1224 34.596 95.2528 34.6521 95.3832C34.9698 96.1098 35.2502 96.8549 35.6053 97.5814C35.7735 97.9354 36.0538 98.2334 36.521 98.1589C36.8014 98.1216 36.9509 97.9167 36.8761 97.6746C36.521 96.4637 36.6518 95.1038 35.8108 94.0233C35.5118 93.6321 35.3623 93.1664 35.381 92.6821C35.381 92.4772 35.4744 92.2909 35.6987 92.2536C35.8669 92.2164 36.0164 92.3095 36.1099 92.4585C36.5584 93.2223 37.0817 93.9675 37.4555 94.7685C38.0722 96.0352 38.6703 97.302 39.4365 98.4756L39.7355 99.0717L39.9411 99.3884L40.2775 100.115C40.2028 100.227 40.2402 100.283 40.3523 100.301L40.5952 100.674L40.8943 101.121L41.4923 102.257L41.8848 102.835C41.9409 103.282 42.2025 103.636 42.4268 104.008L42.7819 104.511C42.7819 104.511 42.7071 104.698 42.8753 104.642L43.137 105.126L43.3799 105.666V105.797H43.4547L43.6976 106.095L43.9593 106.449C43.9593 106.449 43.8845 106.635 44.0527 106.56L44.4265 107.287L44.3704 107.324C44.3704 107.361 44.3891 107.38 44.4078 107.417C44.7629 107.939 45.1928 107.883 45.6413 107.548C46.0711 107.212 46.2954 106.747 46.202 106.206C46.0711 105.48 45.7347 104.902 44.875 104.884L44.6508 104.623L44.3518 104.269C44.4078 104.008 43.9967 103.747 44.277 103.524C44.5573 103.282 44.8003 103.561 45.0246 103.729C45.2862 103.915 45.5665 104.157 45.8843 103.897C46.1833 103.654 46.0151 103.319 45.9029 103.021C45.8469 102.872 45.7534 102.742 45.6974 102.611L45.6039 102.35C45.1554 101.251 44.9872 99.9286 43.5107 99.5933C42.6324 98.0471 42.1464 96.3147 40.9877 94.9175C40.7634 94.6381 40.5392 94.3587 40.5579 93.9861C41.2494 93.3713 41.1746 93.1292 40.1654 92.6262C40.128 92.2723 39.9411 92.086 39.586 92.1791C39.3244 92.2536 39.3618 92.5331 39.3431 92.7566C39.287 93.4645 39.6047 94.0606 39.9224 94.6567C40.913 96.5196 41.8661 98.4011 42.8379 100.264C42.9688 100.525 43.2117 100.841 42.8192 101.102C41.9782 99.761 40.9877 98.5501 40.2588 97.1343C39.829 96.296 39.7916 95.2715 38.988 94.6195C38.988 94.5263 38.988 94.4145 38.9506 94.34C38.147 93.1292 37.5676 91.8252 37.1565 90.4094C36.8014 89.1426 36.521 87.7455 35.5492 86.7023L35.6426 86.665ZM64.3864 91.4153C64.3304 91.583 64.2369 91.8065 64.4986 91.8811C64.7042 91.9369 64.7789 91.7693 64.8163 91.6202C64.9845 90.6516 65.1901 89.7015 65.5452 88.7701C65.6012 88.6024 65.6199 88.3602 65.377 88.2857C65.134 88.2298 65.0593 88.4347 64.9845 88.621C64.6855 89.5338 64.3678 90.428 64.3678 91.3967L64.3864 91.4153ZM63.7884 97.8608C63.751 97.7304 63.7323 97.5814 63.6576 97.5069C63.5081 97.3951 63.3399 97.4696 63.2277 97.6C62.91 98.0285 62.5736 98.4756 62.312 98.9413C62.1251 99.2766 62.312 99.5747 62.611 99.7423C62.9848 99.9659 63.1343 99.6492 63.2464 99.3884C63.452 98.8854 63.6015 98.3638 63.7884 97.8422V97.8608ZM63.7884 97.1716C63.7884 97.1716 63.7323 97.2088 63.7323 97.2275C63.7323 97.2647 63.7697 97.3206 63.7884 97.3579C63.8071 97.3392 63.8445 97.3206 63.8445 97.302C63.8445 97.2647 63.8071 97.2088 63.7884 97.1716Z" fill="#F7B608"/>
<path d="M29.9985 62.4477C29.6808 62.8017 29.6621 63.4537 28.9332 63.3605C28.2791 63.286 28.0362 62.8017 27.7745 62.3173C26.8774 60.7525 26.5971 59.0573 26.4663 57.269C26.2981 55.2757 25.401 53.3942 25.5131 51.3264C25.6066 49.8361 26.2233 48.7184 27.2325 47.6566C28.7837 46.0359 30.4844 44.5829 32.1851 43.1485C33.8485 41.7327 35.9417 41.6768 38.0161 42.1053C38.6889 42.2543 39.3804 42.4965 39.9598 42.9249C40.2588 43.223 40.5579 43.5024 40.8569 43.8005C42.3894 45.2908 43.8098 46.8369 43.978 49.1469C44.0153 49.6685 44.3704 50.0224 44.9124 50.1156C45.6787 50.246 45.9029 50.7676 46.0338 51.4755C46.7813 55.7601 46.4262 60.0446 46.0151 64.3106C45.8469 65.9313 45.5292 67.4775 43.8845 68.3717C43.2117 68.7256 42.6323 69.2472 41.9969 69.6943C41.8661 69.6943 41.7166 69.6943 41.6231 69.7315C40.2962 70.3835 39.3804 69.9178 38.7076 68.707C38.7824 68.055 38.446 67.6265 37.8479 67.8128C36.6892 68.1667 35.6052 67.8873 34.5026 67.6265C34.1475 67.6265 33.9419 67.8687 33.6803 68.055C33.0635 68.5207 32.4655 68.3158 32.2412 67.552C32.073 67.0118 31.9609 66.4529 31.8114 65.9127L31.8487 65.8754H31.7927C31.4376 65.2793 31.4002 64.6087 31.232 63.9567C31.2694 63.5096 31.232 63.0811 31.1386 62.6527C31.0638 62.336 30.9704 61.982 30.634 61.9261C30.3349 61.8703 30.2415 62.2615 30.0546 62.4664L29.9985 62.4477Z" fill="#F7B608"/>
<path d="M53.9953 74.2957C49.1548 77.5557 44.3143 80.8157 39.4739 84.0757C39.6047 85.063 39.4365 86.1435 40.3336 86.8886C40.3523 86.8886 40.371 86.9445 40.371 86.9818C39.8477 88.6211 41.268 89.8878 41.2307 91.434C41.6418 92.2537 42.5576 92.5517 43.1369 93.2037C45.0619 94.3587 46.501 95.8863 47.0056 98.1776C47.1551 98.8855 47.7531 99.3512 48.2391 99.8542C48.5194 99.7424 48.7997 99.5747 48.8371 99.2767C49.0053 98.0099 49.566 96.8363 49.7529 95.5509C50.0519 93.4459 49.9958 91.2477 51.1919 89.3476C51.3975 89.0123 51.3788 88.6025 51.0985 88.2671C50.7434 87.8201 50.7808 87.3357 51.0985 86.9259C51.9208 85.864 51.9769 84.56 52.3133 83.3305C52.7058 81.8775 52.2198 80.1637 53.5654 78.9901C53.6402 78.9342 53.6402 78.7293 53.6028 78.6175C52.93 77.2762 53.5841 76.1399 54.1822 75.0035C54.3317 74.7241 54.3878 74.4633 54.014 74.3143L53.9953 74.2957Z" fill="#F70607"/>
<path d="M39.0814 94.5822C39.0814 94.4891 39.0814 94.3773 39.044 94.3028C38.2404 93.0919 37.661 91.7879 37.2499 90.3721C36.8948 89.1054 36.6144 87.7082 35.6426 86.665L31.3254 89.5152C31.7927 90.4467 32.2786 91.3595 32.7084 92.2909C33.1943 93.2968 33.699 94.3214 32.7832 95.3832C33.2691 95.849 33.5121 95.7744 33.7737 95.0666C33.8672 94.8244 33.8485 94.4891 34.1662 94.4704C34.54 94.4332 34.596 94.7871 34.6895 95.0479C34.7455 95.1597 34.7642 95.2901 34.8203 95.4205C35.138 96.147 35.4183 96.8922 35.7734 97.6187C35.9416 97.9726 36.222 98.2707 36.6892 98.1962C36.9695 98.1589 37.1191 97.954 37.0443 97.7118C36.6892 96.501 36.82 95.1411 35.979 94.0606C35.68 93.6694 35.5305 93.2037 35.5492 92.7194C35.5492 92.5144 35.6426 92.3282 35.8669 92.2909C36.0351 92.2536 36.1846 92.3468 36.278 92.4958C36.7266 93.2596 37.2499 94.0047 37.6237 94.8058C38.2404 96.0725 38.8385 97.3393 39.6047 98.5129C39.5673 97.6932 39.4739 96.9108 38.8385 96.2588C38.2591 95.6627 38.4834 95.0666 39.1001 94.5822H39.0814Z" fill="#F70607"/>
<path d="M37.8853 88.2856C37.9974 89.0308 38.2965 89.5338 39.0814 89.6455C38.9319 88.0807 38.1656 86.6277 38.1843 85.0256C37.8853 85.1933 37.5863 85.361 37.2873 85.5286C37.2873 85.7708 36.7453 85.9012 37.1377 86.2179C37.8105 86.7581 37.7732 87.5591 37.8853 88.2856Z" fill="#F70607"/>
<path d="M44.3891 103.524C44.6695 103.282 44.9124 103.561 45.1367 103.729C45.3983 103.915 45.6787 104.157 45.9964 103.897C46.2954 103.654 46.1272 103.319 46.0151 103.021C45.959 102.872 45.8656 102.742 45.8095 102.611C44.5947 101.959 44.0714 100.804 43.6229 99.5933C42.7445 98.0471 42.2586 96.3147 41.0998 94.9175C40.8756 94.6381 40.6513 94.3587 40.67 93.9861C40.5392 93.539 40.4083 93.0733 40.2775 92.6262C40.2401 92.2723 40.0533 92.086 39.6982 92.1791C39.4365 92.2536 39.4739 92.5331 39.4552 92.7566C39.3991 93.4645 39.7169 94.0606 40.0346 94.6567C41.0251 96.5196 41.9782 98.4011 42.9501 100.264C43.0809 100.525 43.3238 100.841 42.9314 101.102C43.3052 102.239 44.0153 103.207 44.4826 104.306C44.5386 104.046 44.1275 103.785 44.4078 103.561L44.3891 103.524Z" fill="#F70607"/>
<path d="M44.9871 104.903C45.0245 105.406 45.118 105.909 45.5291 106.262C45.9029 106.598 46.1085 106.97 45.6786 107.399C45.2675 107.809 44.8937 107.678 44.5386 107.306C44.5199 107.306 44.4825 107.343 44.4825 107.343C44.4825 107.38 44.5012 107.399 44.5199 107.436C44.875 107.958 45.3049 107.902 45.7534 107.566C46.1833 107.231 46.4075 106.765 46.3141 106.225C46.1833 105.499 45.8468 104.921 44.9871 104.903Z" fill="#F70607"/>
<path d="M41.6093 102.295C41.4962 101.885 41.3078 101.494 41.0064 101.158C41.2136 101.531 41.402 101.922 41.6093 102.295Z" fill="#F70607"/>
<path d="M42.5432 104.064C42.4679 103.636 42.223 103.263 41.9969 102.872C42.0534 103.319 42.3172 103.673 42.5432 104.064Z" fill="#F70607"/>
<path d="M43.492 105.834C43.492 105.834 43.5671 105.834 43.6046 105.834L43.5295 105.722V105.852L43.492 105.834Z" fill="#F70607"/>
<path d="M44.1653 106.579L44.0714 106.467C44.0714 106.467 43.9964 106.653 44.1653 106.579Z" fill="#F70607"/>
<path d="M40.5022 100.356L40.4272 100.171C40.3521 100.282 40.3896 100.338 40.5022 100.356Z" fill="#F70607"/>
<path d="M42.9879 104.678L42.8941 104.549C42.8941 104.549 42.819 104.734 42.9879 104.678Z" fill="#F70607"/>
<path d="M70.4978 73.5878C70.4978 73.327 70.4978 73.0848 70.2922 72.8799C70.2922 72.8054 70.3296 72.7495 70.3482 72.675L70.4043 72.3397L70.5164 71.6877C70.7407 71.4641 70.9089 71.222 70.8155 70.8867C70.9837 70.1974 71.1332 69.4895 71.3014 68.8003C71.5443 68.5767 71.6939 68.3345 71.5817 67.9806L71.8434 67.2541C72.1985 67.1796 71.8434 66.4903 72.3106 66.6021C72.7778 66.7325 72.3106 67.1423 72.404 67.4217C72.4414 67.5335 72.4601 67.6639 72.4788 67.7943L72.348 68.4277L72.2545 68.8375C72.0863 69.6013 71.7499 70.2719 71.3948 70.9426C71.3201 71.4083 70.722 71.7063 70.965 72.2652L70.8342 72.6378C70.666 72.675 70.7033 72.7495 70.7968 72.8427C70.7594 72.9544 70.722 73.0662 70.6847 73.1966L70.4791 73.5692L70.4978 73.5878Z" fill="#F7B608"/>
<path d="M162.242 112.745C163.046 112.168 163.233 111.199 163.7 110.417C165.139 107.995 166.41 105.48 167.774 103.002C168.784 101.177 169.812 99.3698 170.858 97.5629C171.008 97.3021 171.195 97.0413 171.531 97.1158C171.793 97.1717 171.755 97.4697 171.83 97.6746C172.503 99.4444 173.194 101.195 173.886 102.947C174.26 103.897 174.689 104.828 175.026 105.797C175.848 108.163 176.783 110.473 177.754 112.782C178.857 115.372 179.792 118.036 180.969 120.588C181.212 121.109 181.062 121.389 180.52 121.612C179.511 122.004 178.483 122.413 177.53 122.954C176.689 123.419 176.465 123.01 176.222 122.339C175.063 119.042 173.867 115.763 172.69 112.484C172.036 110.64 171.344 108.815 170.671 106.97C170.597 106.747 170.69 106.393 170.316 106.393C170.073 106.393 169.98 106.635 169.868 106.84C168.429 109.448 166.971 112.037 165.494 114.627C164.485 116.415 163.439 118.166 162.411 119.936C162.261 120.197 162.168 120.588 161.757 120.551C161.401 120.532 161.364 120.159 161.233 119.917C159.906 117.365 158.636 114.776 157.234 112.261C156.243 110.473 155.421 108.591 154.487 106.765C154.374 106.542 154.262 106.3 153.926 106.169C153.664 106.765 153.477 107.399 153.29 108.014C152.711 109.821 152.281 111.665 151.777 113.49C151.515 114.44 151.122 115.353 150.861 116.322C150.319 118.427 149.702 120.513 149.104 122.6C148.955 123.14 148.693 123.419 148.057 123.047C147.104 122.507 145.983 122.413 144.992 121.892C144.338 121.557 144.32 121.184 144.544 120.569C145.46 118.073 146.301 115.558 147.198 113.062C147.983 110.826 148.824 108.61 149.609 106.374C150.356 104.269 151.048 102.127 151.758 100.003C152.113 98.9414 152.655 97.9541 152.879 96.8364C152.935 96.5755 153.047 96.2402 153.421 96.2402C153.758 96.2402 153.758 96.5755 153.87 96.7991C154.58 98.159 155.309 99.5189 156.019 100.879C157.196 103.151 158.336 105.443 159.551 107.697C160.448 109.355 161.065 111.162 162.242 112.708V112.745Z" fill="white"/>
<path d="M112.025 115.484C108.455 115.651 104.886 115.838 101.316 116.005C100.886 116.024 100.606 116.191 100.419 116.601C99.4846 118.539 98.5127 120.439 97.597 122.376C97.354 122.879 97.1671 123.121 96.6064 122.786C95.5785 122.19 94.5319 121.631 93.4854 121.072C92.9994 120.811 92.9808 120.513 93.2424 120.048C94.5319 117.756 95.8028 115.465 97.055 113.155C99.1108 109.318 101.111 105.461 103.204 101.642C104.232 99.7983 105.297 97.9726 106.25 96.0725C106.53 95.5137 106.923 95.3274 107.39 95.998C108.175 97.1344 108.754 98.3825 109.446 99.5747C110.717 101.736 112.044 103.841 113.202 106.057C114.342 108.274 115.632 110.417 116.959 112.522C118.454 114.906 119.781 117.402 121.201 119.843C121.463 120.29 121.332 120.588 120.958 120.811C119.986 121.426 118.977 122.004 118.005 122.637C117.351 123.065 116.94 122.879 116.604 122.246C115.875 120.886 115.146 119.545 114.398 118.203C113.969 117.421 113.52 116.639 113.109 115.838C112.866 115.372 112.473 115.353 112.025 115.446V115.484ZM107.072 112.168C108.268 112.168 109.427 112.168 110.605 112.168C110.885 112.168 111.371 112.224 111.053 111.665C109.577 109.075 108.362 106.356 107.072 103.692C106.998 103.524 106.979 103.263 106.736 103.319C106.586 103.356 106.418 103.543 106.343 103.692C106.138 104.083 106.082 104.53 105.876 104.94C104.774 107.175 103.708 109.429 102.643 111.683C102.344 112.317 102.55 112.484 103.204 112.428C104.512 112.317 105.839 112.261 107.11 112.168H107.072Z" fill="white"/>
<path d="M76.7586 109.485C76.7586 105.666 76.7773 101.829 76.7586 98.0099C76.7586 97.1343 77.0016 96.7804 77.8986 96.8362C81.7299 97.0598 85.5798 97.1902 89.2429 98.4569C91.0371 99.0717 92.663 100.115 93.4853 101.903C94.3637 103.785 94.289 105.759 93.3171 107.659C91.3921 111.422 88.0468 113.285 84.1782 114.459C83.6922 114.608 83.1876 114.757 82.683 114.832C81.9168 114.943 81.7112 115.334 81.7486 116.098C81.8047 117.831 81.7486 119.563 81.786 121.314C81.786 122.078 81.5243 122.358 80.7581 122.302C79.861 122.246 78.9452 122.283 78.0481 122.302C76.8334 122.302 76.7773 122.264 76.7773 121.091C76.7773 117.235 76.7773 113.378 76.7773 109.522L76.7586 109.485ZM81.7299 106.002C81.7299 107.604 81.7299 109.206 81.7299 110.808C81.7299 111.404 81.8981 111.627 82.5148 111.478C84.6267 110.938 86.5891 110.044 87.8039 108.218C89.299 105.927 89.6541 103.897 87.0376 101.791C85.6733 100.692 83.9352 100.45 82.2158 100.432C81.6925 100.432 81.7299 100.823 81.7486 101.195C81.7486 102.797 81.7486 104.399 81.7486 106.002H81.7299Z" fill="white"/>
<path d="M128.303 117.086C128.266 115.204 128.583 113.304 128.098 111.423C127.2 107.976 125.687 104.94 122.696 102.816C121.725 102.146 120.659 101.624 119.594 101.065C119.183 100.842 118.977 100.655 119.183 100.171C119.631 99.109 120.061 98.0472 120.51 96.9854C120.753 96.3893 121.164 96.3334 121.687 96.5756C126.042 98.5316 129.275 101.549 130.714 106.225C130.807 106.523 130.77 106.952 131.181 106.97C131.555 106.97 131.518 106.561 131.63 106.3C132.994 102.63 135.573 99.9846 138.825 97.9354C139.722 97.3766 140.619 96.8177 141.666 96.5197C142.226 96.352 142.6 96.4638 142.731 97.0972C142.955 98.0658 143.46 98.9414 143.647 99.9287C143.759 100.543 143.647 100.916 143.03 101.102C139.554 102.183 137.143 104.586 135.349 107.604C134.228 109.467 133.499 111.572 133.48 113.807C133.461 116.247 133.349 118.688 133.592 121.128C133.686 121.985 133.33 122.283 132.508 122.246C131.518 122.209 130.508 122.19 129.518 122.246C128.639 122.302 128.284 122.004 128.34 121.109C128.397 119.768 128.34 118.408 128.34 117.067L128.303 117.086Z" fill="white"/>
<path d="M48.9119 139.738C48.7624 137.726 48.426 135.696 47.8092 133.851C46.9122 131.132 46.0525 128.188 43.3239 126.512H43.3425C42.2773 125.04 41.4736 123.419 40.8195 121.743C40.3336 120.532 39.7169 119.843 38.4273 119.843C38.0535 119.843 37.7545 119.75 37.6611 119.414C37.4742 118.837 37.0256 118.762 36.5397 118.688C35.1567 118.483 33.9793 118.241 33.1196 116.788C32.0543 114.999 31.1199 113.285 31.2694 111.143C31.3628 109.672 31.3815 108.125 30.8769 106.765C30.092 104.698 29.6995 102.518 28.9706 100.45C28.6342 99.4816 28.7464 98.3453 27.8493 97.5443C27.5316 97.2648 27.1204 97.2276 26.784 97.004C26.6719 96.9295 26.5784 96.8364 26.5037 96.6873C25.943 95.7559 24.5226 95.4392 24.56 94.0607C24.56 94.0607 24.5039 94.0421 24.4666 94.0234C24.2423 94.0607 24.018 94.0979 23.9806 94.3774C23.121 95.1039 22.1678 95.6814 21.2334 96.3148C16.9536 99.1649 12.7111 102.034 8.43133 104.884C5.85224 106.616 3.25446 108.312 0.675363 110.044C-0.240402 110.659 -0.221713 110.845 0.712742 111.441C2.37607 112.522 4.0394 113.621 5.68404 114.72C9.01069 116.955 12.3187 119.209 15.6827 121.426C17.7198 122.767 19.7756 124.09 21.7753 125.45C24.3918 127.238 27.027 129.008 29.6808 130.759C31.6619 132.063 33.5681 133.479 35.6053 134.708C37.3807 135.789 39.0254 137.093 40.7634 138.248C43.9219 140.334 47.1364 142.346 50.1641 144.637C50.2575 144.936 50.5191 144.824 50.7434 144.861C50.6873 144.712 50.65 144.563 50.5752 144.433C49.9398 142.905 49.0614 141.415 48.9306 139.757L48.9119 139.738ZM43.1183 126.4C43.1183 126.4 43.2491 126.475 43.3052 126.493C43.3052 126.493 43.1743 126.419 43.1183 126.4Z" fill="#1731A6"/>
<path d="M70.7781 11.2378C71.3949 9.74746 71.9369 8.21991 72.2546 6.63647C71.507 8.08951 71.0024 9.61706 70.7781 11.2378Z" fill="#1731A6"/>
<path d="M69.5259 16.9754C70.4043 16.0067 70.2922 14.7399 70.4978 13.585C69.825 14.6095 70.0305 15.8949 69.5259 16.9754Z" fill="#1731A6"/>
<path d="M80.4217 0.489014C81.1132 0.936101 81.786 1.4577 82.6644 1.47633C81.9542 1.04787 81.2627 0.600786 80.4217 0.489014Z" fill="#1731A6"/>
<path d="M76.4783 1.17827C77.1698 1.06649 77.9547 1.29004 78.5154 0.675293C77.88 0.99198 77.0389 0.507635 76.4783 1.17827Z" fill="#1731A6"/>
<path d="M80.16 0.339973C79.7489 -0.0884861 79.3564 -0.163001 79.0013 0.414487C79.3938 0.358602 79.7675 0.228201 80.16 0.339973Z" fill="#1731A6"/>
<path d="M84.1409 1.81152C84.1409 2.20273 84.0467 2.59393 84.3858 2.89199C84.3482 2.51941 84.6496 2.07232 84.1409 1.81152Z" fill="#1731A6"/>
<path d="M70.7243 11.6475C70.291 11.9083 70.4417 12.2436 70.5925 12.5789C70.7809 12.2808 70.7997 11.9641 70.7243 11.6475Z" fill="#1731A6"/>
<path d="M50.9303 145.55C50.9115 145.755 50.9303 145.923 51.1564 145.997C51.2129 145.774 51.0999 145.643 50.9303 145.55Z" fill="#1731A6"/>
<path d="M69.3784 17.4412C69.1146 17.5157 69.1146 17.7206 69.1523 17.9255C69.3595 17.8137 69.4349 17.6647 69.3784 17.4412Z" fill="#1731A6"/>
<path d="M73.0789 4.88525C72.8528 4.94114 72.7209 5.03428 72.9282 5.25783C73.0789 5.16468 73.1166 5.05291 73.0789 4.88525Z" fill="#1731A6"/>
<path d="M73.5281 4.30786C73.2832 4.32649 73.189 4.47552 73.189 4.69906C73.3963 4.64318 73.5093 4.51278 73.5281 4.30786Z" fill="#1731A6"/>
<path d="M73.9205 3.73047C73.6191 3.76773 73.5625 3.95401 73.6002 4.21481C73.8075 4.12167 73.9205 3.97264 73.9205 3.73047Z" fill="#1731A6"/>
<path d="M75.0792 2.38916C74.8155 2.40779 74.7213 2.57545 74.7589 2.81762C74.9473 2.7431 75.0604 2.59408 75.0792 2.38916Z" fill="#1731A6"/>
<path d="M22.3195 89.4408C22.376 89.2173 22.2442 89.0682 22.0558 88.9751C22.0181 89.1986 22.0558 89.3849 22.3195 89.4408Z" fill="#1731A6"/>
<path d="M207.414 110.23C204.461 108.293 201.527 106.318 198.593 104.362C195.584 102.35 192.556 100.338 189.547 98.3266C187.267 96.8176 184.987 95.3087 182.726 93.7998C180.109 92.0487 177.511 90.2604 174.895 88.5279C172.26 86.7582 169.587 85.0443 166.952 83.2746C163.532 80.9833 160.149 78.6733 156.729 76.382C153.795 74.4074 150.842 72.4886 147.927 70.514C144.974 68.5207 142.04 66.5088 139.087 64.5156C135.723 62.2615 132.34 60.0447 128.976 57.8093C126.285 56.0209 123.593 54.2139 120.884 52.4069C118.435 50.7676 115.968 49.1656 113.52 47.5262C110.511 45.4957 107.502 43.4652 104.512 41.416C104.007 41.0621 103.596 41.118 103.11 41.4906C102.4 42.0494 101.652 42.5524 100.905 43.0367C98.3258 44.7319 95.6719 46.2967 93.1863 48.1037C90.2147 50.246 87.0937 52.1648 84.0847 54.2698C81.4869 56.0954 78.8144 57.8279 76.1792 59.579C74.4225 60.7526 72.6657 61.9262 70.8902 63.1184C70.6099 63.3047 70.1427 63.5096 70.1053 63.0812C70.0305 61.8703 69.0774 60.8085 69.582 59.5231C69.7315 59.1319 69.6381 58.6848 69.339 58.4426C68.4793 57.7534 68.6662 56.8964 68.7597 55.9836C68.9092 54.3443 69.5072 52.7236 68.9092 51.0284C68.6849 50.3951 68.741 49.6313 68.7784 48.9234C68.8344 47.5821 69.3951 46.3899 70.0305 45.2163C70.4604 44.4153 70.8715 43.6329 70.4417 42.6828C70.2548 42.2543 70.4417 41.8072 70.6473 41.3788C71.6939 38.9943 72.1798 36.4236 73.1142 33.9832C73.3198 33.443 73.1516 32.791 73.5067 32.3066C73.8244 31.8782 73.8992 31.487 73.7683 30.9654C73.5815 30.183 74.273 28.674 74.8897 28.6182C75.7494 28.5436 75.8241 28.0034 75.955 27.4073C76.0671 26.9043 76.1232 26.3641 76.3661 25.9356C76.7399 25.3209 76.9081 24.7248 76.7399 24.0169C76.6278 23.5698 76.7399 23.1786 77.2632 23.0482C77.5996 22.955 77.8799 22.7688 77.8799 22.3962C77.936 20.9432 78.4219 19.5646 78.7023 18.1489C79.1321 15.9507 79.9544 13.9202 81.3 12.1132V12.0387L81.3561 11.7965C81.6925 11.6288 81.786 11.2935 81.8981 10.9768C82.1597 10.6974 82.4027 10.3993 82.7017 10.1758C83.0568 9.89637 83.5054 9.67282 83.9539 9.915C84.4398 10.1758 84.2342 10.6415 84.1782 11.0327C84.066 11.8151 83.8978 12.5975 83.767 13.3799C83.7296 13.6035 83.7296 13.8456 84.0287 13.9015C84.2903 13.9574 84.5146 13.8084 84.5333 13.5662C84.6454 12.3367 85.4864 11.5916 86.3087 10.8278C86.4769 10.6788 86.7012 10.5297 86.5891 10.2689C85.9536 8.81591 87.1124 7.79133 87.4674 6.58047C87.7852 6.37555 87.7852 6.18927 87.4488 6.00298L87.3179 5.61178C87.5796 5.3696 87.5796 5.18332 87.2245 5.03429L87.1497 4.62446C87.374 4.28914 87.1497 4.28914 86.9068 4.25189C86.0471 4.36366 85.3369 3.91657 84.5706 3.63714L84.3464 3.46948C84.1595 3.8048 84.2155 4.17737 84.2155 4.54994C84.2155 4.60583 84.1782 4.66172 84.1408 4.69897C84.1408 4.75486 84.1408 4.81075 84.0847 4.848L83.9539 5.1088L83.8791 5.25783L83.7296 5.46275C83.1129 5.68629 83.2437 6.20789 83.3185 6.63635C83.4119 7.1207 83.468 7.60504 83.3932 8.10802C82.9447 8.36882 82.4401 8.5551 82.2345 9.09533L82.0663 9.28162L81.8607 9.61694V9.65419L81.7299 9.84048C81.7299 9.84048 81.6925 9.915 81.6551 9.95225C81.6178 10.0268 81.5617 10.1013 81.543 10.1944C81.4496 10.6043 81.543 11.2935 80.945 11.1631C80.4403 11.07 80.6085 10.4366 80.702 10.0081C80.7207 9.91499 80.7954 9.82185 80.7768 9.72871C80.7768 8.96493 81.1132 8.21979 80.7768 7.45601C80.6833 7.3815 80.5712 7.30698 80.4777 7.23247C80.2348 7.28836 79.8797 7.06481 79.7675 7.49327C79.7675 7.53053 79.7115 7.56778 79.6741 7.56778C79.6741 7.62367 79.6367 7.6423 79.5807 7.6423L79.319 7.79133C79.319 7.79133 79.2629 7.84721 79.2069 7.84721L78.9452 7.99624L78.8331 8.18253L78.721 8.38745C78.5341 8.49922 78.4032 8.64825 78.3659 8.87179L78.2163 9.09533C78.1042 9.15122 78.0481 9.26299 78.0855 9.39339L77.8986 9.74734L77.6744 10.1385C77.4688 10.1944 77.4314 10.3435 77.4127 10.5297C77.4127 10.5856 77.3753 10.6043 77.3193 10.6229C76.7399 11.2376 76.4035 11.9455 76.2914 12.7652L76.1979 12.9887C75.4504 15.2987 74.9458 17.6459 74.7028 20.0676C73.7683 20.1235 73.4319 20.6637 73.5254 21.5393C73.5628 21.8932 73.5815 22.2472 73.6001 22.5825C73.7497 22.4707 73.8244 22.3217 73.8244 22.154C73.8244 22.3217 73.7497 22.4707 73.6001 22.5825L73.4133 22.8805V22.8433L73.2264 23.2345C72.8339 23.6443 72.6283 24.1287 72.6844 24.6875C72.7031 24.9856 72.7218 25.3581 72.4227 25.414C71.806 25.5258 71.6191 26.066 71.2266 26.4014C71.3575 26.3082 71.507 26.2337 71.6378 26.1964C71.4883 26.2337 71.3575 26.3082 71.2266 26.4014L71.1706 26.4572L71.0024 26.6249C70.6286 26.9043 70.5538 27.3514 70.5912 27.724C70.666 28.8417 70.3856 29.9035 69.9931 30.8722C69.6567 31.6919 69.4699 32.4929 69.3764 33.3312L69.2269 33.7969C68.8905 34.0391 68.7784 34.4303 68.741 34.8029C68.6288 35.7343 68.2738 36.5726 67.8252 37.3923C67.5262 37.9697 67.358 38.6404 67.358 39.311L67.2645 39.7208C67.3019 39.9071 67.3393 40.0934 67.3954 40.2983C67.6757 41.1925 66.816 41.8072 66.8534 42.6455C66.7786 42.8132 66.7039 42.9808 66.6291 43.1485C65.7881 44.1917 65.3209 45.3281 65.6386 46.6879C66.0684 48.9048 66.0684 51.1402 65.6386 53.357C65.4704 54.2139 65.5078 55.0895 66.274 55.7415C66.6104 56.0395 66.6665 56.468 66.5357 56.8965C66.4235 57.269 66.3488 57.6602 66.4609 58.0328C67.3019 60.9202 66.3862 63.6959 65.9002 66.4902C65.4891 68.9306 64.3864 71.1846 63.8071 73.5691C63.6576 74.1652 63.6949 74.6496 64.2182 75.0221C64.592 75.2643 64.7789 75.6369 64.6107 76.0281C63.9005 77.686 64.6107 79.0832 65.3396 80.4989C65.4517 80.7039 65.4143 81.1882 65.8629 80.9647C66.1619 80.8156 66.3301 80.4617 66.1058 80.145C65.732 79.6234 65.9937 79.2322 66.1619 78.7292C66.6104 77.4997 67.4327 76.2516 67.2832 74.9849C67.0963 73.4201 67.7318 72.2651 68.442 71.0542C68.5915 70.7934 68.7971 70.4022 69.1708 70.5885C69.4885 70.7375 69.3203 71.0915 69.2643 71.3709C68.9653 72.8053 68.5541 74.2211 68.4046 75.6928C68.442 75.7859 68.4606 75.879 68.4606 75.9908C68.4606 75.879 68.4606 75.7859 68.4046 75.6928C67.4514 77.4438 66.9095 79.344 66.7039 81.3C66.6104 82.1755 66.3301 82.8648 65.8068 83.5727C65.4704 84.0384 64.9471 84.5414 65.2835 85.2493C65.2087 85.51 65.3956 85.4728 65.5452 85.4914C65.5638 85.6963 65.5825 85.9199 65.6386 86.1248C65.676 86.2738 65.7881 86.4415 65.9937 86.3483C66.1806 86.2552 66.1058 86.0689 66.0871 85.9199C66.2553 85.7522 66.3862 85.5473 66.2927 85.2865L66.3488 85.1002C66.4796 84.7835 66.7412 84.5041 66.6852 84.1129C67.3767 82.3804 67.4888 80.4431 68.442 78.7851L68.5354 78.2821C68.6475 77.9468 68.9092 77.6674 68.8157 77.2762C68.8157 77.2389 68.8157 77.2017 68.8531 77.1644C69.0213 77.1644 69.2082 77.1458 69.3764 77.1272L69.5072 77.4252C69.4138 77.8723 69.7315 77.8723 70.0118 77.9096V78.4871C69.881 78.5243 69.825 78.6361 69.8063 78.7665C69.3203 79.0087 69.0961 79.4185 68.9092 79.9401C68.1616 81.8588 67.6009 83.7962 67.1898 85.8267C66.9095 87.1866 66.6478 88.5093 66.5917 89.8878L66.5357 90.2045C65.975 90.931 65.676 91.7693 65.4704 92.6448C65.3583 93.1105 65.1901 93.7253 64.6855 93.7253C63.6202 93.7253 63.7323 94.6567 63.4146 95.1783C63.2464 95.4391 63.5267 96.1656 64.1435 95.998C64.6294 95.8676 64.4425 96.1284 64.5172 96.3333C64.6294 96.7059 64.4799 97.0412 64.4238 97.3765C63.9566 99.9286 63.4707 102.481 62.9847 105.033C62.9287 105.331 63.0408 105.815 62.6483 105.815C62.3306 105.815 62.2746 105.368 62.2372 105.033C62.2372 104.865 62.2372 104.716 62.2185 104.549C62.1624 104.027 62.4054 103.114 61.8634 103.114C61.2093 103.114 61.3962 104.027 61.4149 104.567C61.4896 105.908 61.2467 107.212 60.7794 108.423C60.2001 109.951 60.3122 111.218 61.4896 112.354C62.4428 113.285 63.2651 114.254 63.4707 115.651C63.8818 118.334 64.4612 120.998 64.7976 123.699C65.2087 126.81 65.975 129.883 65.6199 133.05C65.2835 136.254 66.4422 139.03 67.956 141.713C68.6475 142.924 69.6381 143.967 69.5633 145.513C69.5633 145.904 69.825 146.221 70.2174 146.37L70.2548 146.426C70.4791 146.351 70.6846 146.333 70.8902 146.351C70.6846 146.351 70.4791 146.351 70.2548 146.426C70.3482 146.891 70.4604 147.357 70.1614 147.804C69.9931 148.065 70.0118 148.382 70.2174 148.605C70.6099 149.034 70.6846 149.574 70.7968 150.096C71.2079 151.958 71.8808 153.728 72.4788 155.535C72.4601 155.61 72.4788 155.647 72.5349 155.666C72.6844 156.336 72.647 156.988 72.3854 157.64C72.1798 158.162 71.9742 158.739 72.3106 159.317C72.647 159.894 72.6844 160.528 72.8152 161.161C73.0582 162.223 72.9086 163.396 73.2264 164.365C73.9926 166.656 74.273 169.06 75.0018 171.351C75.1887 171.928 75.0579 172.636 75.4317 173.121C76.1605 174.015 76.2353 175.058 76.2353 176.12C76.2353 176.511 76.2353 176.884 76.3848 177.256C77.5062 180.498 79.1695 183.515 80.0105 186.869C80.459 188.601 81.0571 190.352 81.6738 192.066C82.0102 193.035 81.9729 194.19 82.8699 194.953C83.1129 195.158 83.169 195.512 82.8699 195.81C82.3466 196.369 82.5335 196.816 83.0942 197.245C83.524 197.561 83.6549 198.046 83.3185 198.53C82.9821 199.014 83.0942 199.406 83.3745 199.853C83.7857 200.505 84.2155 201.138 84.4398 201.902C84.7762 203.02 85.2621 204.044 86.0097 204.976C86.9068 206.093 86.9441 206.913 86.2153 208.161C86.0284 208.459 85.8976 208.739 86.1405 209.037C86.8133 209.856 86.3274 210.21 85.5798 210.471C85.9349 210.955 86.3087 211.44 86.6638 211.924C87.2245 212.706 87.9534 212.986 88.9252 212.837C89.5232 212.744 89.7101 212.613 89.2803 212.11C88.7383 211.477 88.8131 210.881 89.355 210.322C90.0278 209.633 89.9344 208.981 89.355 208.273C88.7944 207.565 88.215 206.857 87.9347 206C87.5422 204.771 87.0937 203.597 86.3461 202.517C86.0658 202.125 85.9349 201.622 86.1966 201.138C86.4956 200.579 86.3461 200.169 85.8976 199.778C85.6546 199.573 85.2995 199.219 85.5051 198.977C86.1966 198.12 85.9723 197.468 85.2248 196.835C85.1126 196.742 85.1687 196.462 85.1313 196.276C85.0192 195.81 84.9818 195.307 84.7949 194.879C84.1969 193.556 83.9165 192.14 83.4493 190.799C82.6083 188.322 81.7299 185.844 80.7768 183.404C80.2908 182.155 79.3938 181.001 79.3751 179.641C79.3377 178.243 78.9639 177.014 78.478 175.747C77.7117 173.81 77.5435 171.686 76.8147 169.73C76.4783 168.817 76.7212 167.737 75.9923 166.899C75.8989 166.805 76.0297 166.545 76.0484 166.34C76.1792 164.849 75.8055 163.415 75.4317 161.981C75.3756 161.757 74.8149 161.627 75.2074 161.31C75.5064 161.068 75.6933 161.478 75.9176 161.627C77.0763 162.428 78.2537 163.229 79.4311 164.011C82.2532 165.893 85.1126 167.756 87.9347 169.656C90.439 171.332 92.906 173.065 95.4103 174.741C98.0268 176.492 100.662 178.225 103.278 179.976C103.54 180.144 103.746 180.311 104.063 180.106C105.876 178.895 107.689 177.685 109.502 176.474C111.576 175.077 113.651 173.679 115.744 172.282C118.36 170.531 120.996 168.817 123.612 167.048C126.546 165.092 129.443 163.08 132.359 161.124C135.237 159.205 138.19 157.361 141.049 155.386C144.208 153.188 147.422 151.083 150.637 148.922C153.066 147.301 155.496 145.662 157.925 144.041C161.308 141.769 164.691 139.496 168.073 137.242C170.634 135.528 173.232 133.889 175.792 132.156C179.25 129.828 182.632 127.387 186.146 125.133C189.585 122.935 192.893 120.551 196.331 118.352C200.05 116.005 203.639 113.472 207.302 111.031C207.881 110.64 207.975 110.454 207.339 110.025L207.414 110.23ZM83.4306 8.18253C83.2998 8.40607 83.1316 8.61099 82.9447 8.77865C83.1316 8.61099 83.2811 8.40607 83.4306 8.18253ZM80.7581 11.4798C80.6272 11.3308 80.5338 11.1631 80.5338 10.9396C80.5338 11.1631 80.6272 11.3308 80.7581 11.4798ZM79.2256 9.85911C79.2256 9.85911 79.2816 9.76597 79.2816 9.72871C79.2816 9.76597 79.2442 9.82185 79.2256 9.85911ZM79.2816 9.71008C79.2816 9.71008 79.1882 9.65419 79.1321 9.63557C79.1882 9.65419 79.2629 9.67282 79.2816 9.71008ZM76.0671 24.4453C76.0671 24.3336 76.0671 24.2032 76.0671 24.0914C76.0671 24.2218 76.0858 24.3336 76.0671 24.4453C76.0484 24.6689 76.0297 24.8924 75.9923 25.0973C76.0297 24.8738 76.0484 24.6689 76.0671 24.4453ZM74.7215 20.198C74.7215 20.198 74.7028 20.3098 74.6654 20.347C74.7028 20.3098 74.7028 20.2539 74.7215 20.198ZM74.7215 23.0668C74.871 23.0296 75.0018 22.9737 75.114 22.8992C75.0018 22.9737 74.871 23.0296 74.7215 23.0668C74.6654 23.0668 74.5907 23.0668 74.5159 23.0668C74.5907 23.0668 74.6654 23.0668 74.7215 23.0668ZM73.6562 28.0407C73.6562 28.0407 73.5441 27.9662 73.5067 27.9848C73.5441 27.9848 73.6188 28.022 73.6562 28.0407ZM71.8808 33.2753C71.8808 33.2753 71.806 33.2567 71.7686 33.2194C71.806 33.2381 71.8434 33.2567 71.8808 33.2753C72.0116 33.2753 72.1237 33.2008 72.0676 33.0518C72.1237 33.2008 72.0116 33.2753 71.8808 33.2753ZM71.9555 29.4564C72.1611 29.4751 72.3106 29.531 72.4414 29.6055C72.3106 29.531 72.1424 29.4751 71.9555 29.4564ZM71.806 32.9214C71.806 32.9214 71.9181 32.9586 71.9555 32.9773C71.9181 32.9586 71.8621 32.94 71.806 32.9214C71.7873 32.9586 71.7499 32.9959 71.7125 33.0331C71.7312 32.9959 71.7686 32.9586 71.806 32.9214ZM71.5817 31.3938C71.5817 31.3938 71.4509 31.4497 71.3948 31.4683C71.4509 31.4683 71.507 31.4311 71.5817 31.3938ZM71.3201 31.0958C71.3201 31.0958 71.4135 31.2075 71.4509 31.2634C71.4135 31.2075 71.3575 31.133 71.3201 31.0958C71.3014 31.0958 71.2453 31.0958 71.1892 31.0958C71.2453 31.0958 71.2827 31.0958 71.3201 31.0958ZM71.1706 37.206C71.2453 36.7775 71.4696 36.349 71.3761 35.9206C71.3761 35.7902 71.3761 35.6784 71.3761 35.5666C71.3761 35.6784 71.3761 35.8088 71.3761 35.9206C71.4696 36.349 71.264 36.7775 71.1706 37.206C71.1519 37.3177 71.0771 37.3736 71.021 37.4295C71.0771 37.355 71.1519 37.2991 71.1706 37.206ZM70.1053 39.963C70.1427 39.8699 70.1614 39.7767 70.1614 39.7022C70.1614 39.7953 70.1427 39.8699 70.1053 39.963ZM70.6473 28.1152C70.6099 28.5809 70.6099 29.0466 70.5538 29.5123C70.6099 29.0466 70.6099 28.5809 70.6473 28.1152ZM70.3482 34.5421C70.5164 34.5048 70.7407 34.5421 70.9276 34.6725C70.7407 34.5607 70.5164 34.5234 70.3482 34.5421C70.0679 34.5793 70.0118 34.7284 70.0492 34.9146C70.0118 34.747 70.0679 34.598 70.3482 34.5421ZM69.5633 40.5032C69.582 41.6768 69.6194 42.8504 69.6194 44.0241C69.6194 42.8504 69.582 41.6768 69.5633 40.5032C69.5633 40.3542 69.4885 40.2611 69.4138 40.2052C69.5072 40.2611 69.5633 40.3542 69.5633 40.5032ZM65.4891 72.6004L65.3209 72.5259L65.4891 72.6004ZM65.3583 76.6801C65.6012 77.0527 65.7694 77.3321 65.6947 77.686C65.7694 77.3321 65.6012 77.0527 65.3583 76.6801ZM65.8815 74.8172C65.8815 74.8172 65.8442 74.6868 65.8068 74.6682C65.8442 74.6682 65.8442 74.7613 65.8815 74.8172ZM65.8442 70.4581C65.8442 70.4581 65.8068 70.4954 65.8255 70.514C65.8255 70.4954 65.8255 70.4581 65.8442 70.4581C65.9563 70.3836 65.9937 70.2905 66.0124 70.1973C66.0124 70.3091 65.9563 70.4022 65.8442 70.4581ZM66.1619 70.6816C66.0498 70.6816 65.9563 70.6444 65.8815 70.6071C65.9563 70.663 66.0498 70.7003 66.1619 70.6816C66.3114 70.6071 66.4983 70.5512 66.6478 70.4581C66.4983 70.5512 66.3301 70.6071 66.1619 70.6816ZM66.6104 73.271C66.6104 73.271 66.6478 73.1593 66.6665 73.122C66.6665 73.122 66.5917 73.2338 66.6104 73.271ZM66.7599 73.3455C66.7599 73.3455 66.8347 73.2338 66.816 73.1965C66.816 73.2338 66.7786 73.3083 66.7599 73.3455ZM68.5541 60.3986C68.5541 60.3986 68.3672 60.3986 68.2551 60.3986C68.3672 60.3986 68.4606 60.3986 68.5541 60.3986C68.6849 60.3986 68.7597 60.4731 68.7784 60.5663C68.741 60.4731 68.6849 60.3986 68.5541 60.3986ZM71.2827 64.6832C71.2827 64.6832 71.2453 64.795 71.2266 64.8323C71.2266 64.8323 71.3014 64.7205 71.2827 64.6832ZM71.1332 64.6087C71.1332 64.6087 71.0584 64.7205 71.0771 64.7577C71.0771 64.7205 71.1145 64.646 71.1332 64.6087ZM69.9371 77.9282C69.9371 77.9282 70.0118 78.0027 70.0118 78.04C70.0118 78.04 69.9558 77.9655 69.9371 77.9282ZM66.4422 125.487C66.4422 125.487 66.3301 125.413 66.2927 125.431C66.3301 125.431 66.4049 125.469 66.4422 125.487ZM66.3862 99.0345C66.4609 99.1649 66.517 99.2953 66.5357 99.4443C66.5357 99.6865 66.5357 99.8914 66.5357 100.04C66.5544 99.8914 66.5357 99.6865 66.5357 99.4443C66.5357 99.2953 66.4609 99.1649 66.3862 99.0345ZM66.8908 122.823C66.9281 122.618 66.9655 122.432 66.8534 122.283C66.9655 122.432 66.9281 122.637 66.8908 122.823ZM66.5544 133.218C66.5357 133.74 66.5917 134.28 66.517 134.801C66.5917 134.261 66.5357 133.74 66.5544 133.218ZM65.6386 94.2655C65.6386 94.2655 65.6386 94.191 65.6947 94.1724C65.6573 94.1724 65.6386 94.2096 65.6386 94.2655C65.6947 94.4518 65.5825 94.6381 65.4704 94.8057C65.5825 94.6381 65.6947 94.4704 65.6386 94.2655ZM65.0779 100.171C64.8537 100.152 64.7041 100.227 64.6107 100.469C64.7041 100.227 64.835 100.152 65.0779 100.171ZM64.7228 99.5561C64.7228 99.5561 64.6107 99.5002 64.592 99.4443C64.6107 99.5002 64.6481 99.5374 64.7228 99.5561ZM63.2464 108.721C63.3211 108.442 63.4146 108.144 63.4893 107.864C63.3959 108.144 63.3211 108.442 63.2464 108.721C63.209 108.833 63.1903 108.964 63.209 109.057C63.209 108.945 63.209 108.833 63.2464 108.721ZM63.3211 113.416C63.3211 113.416 63.2838 113.285 63.2464 113.267C63.2838 113.267 63.2838 113.36 63.3211 113.416ZM64.0874 116.676C64.1622 116.769 64.2556 116.862 64.4051 116.955C64.6481 117.086 64.6107 117.384 64.5733 117.682C64.6107 117.384 64.6481 117.086 64.4051 116.955C64.2556 116.881 64.1622 116.788 64.0874 116.676ZM65.2835 118.762C65.7507 118.744 66.0498 118.855 66.2553 119.098C66.4422 119.34 66.517 119.675 66.4983 120.103C66.4796 120.737 66.4983 121.389 66.4983 122.041C66.4983 121.389 66.4983 120.755 66.4983 120.103C66.4983 119.675 66.4422 119.321 66.2553 119.098C66.0684 118.855 65.7507 118.744 65.2835 118.762C65.1153 118.762 65.0032 118.762 64.891 118.725C64.9845 118.762 65.1153 118.762 65.2835 118.762ZM65.2087 120.737C65.2087 120.737 65.3209 120.811 65.3583 120.793C65.3209 120.793 65.2461 120.755 65.2087 120.737ZM66.1245 126.661C66.1245 126.791 66.1806 126.922 66.2366 127.052C66.3488 127.313 66.517 127.536 66.6665 127.76C66.5357 127.536 66.3488 127.294 66.2366 127.052C66.1806 126.922 66.1432 126.791 66.1245 126.661ZM70.6847 72.8426L70.5725 73.1965L70.3669 73.5691C70.4043 73.8858 70.3669 74.2025 70.18 74.4819C70.3482 74.2025 70.4043 73.8858 70.3669 73.5691C70.3669 73.3083 70.3669 73.0661 70.1614 72.8612L70.1987 72.6563L70.2548 72.321L70.3669 71.669C70.5912 71.4454 70.7594 71.2033 70.666 70.8679C70.8342 70.1787 70.9837 69.4708 71.1519 68.7815C71.3948 68.558 71.5443 68.3158 71.4322 67.9619L71.6939 67.2353C72.0489 67.1608 71.6939 66.4716 72.1611 66.5834C72.6283 66.7137 72.1611 67.1236 72.2545 67.403C72.2919 67.5148 72.3106 67.6452 72.3293 67.7756L72.1985 68.409L72.105 68.8188C71.9368 69.5826 71.6004 70.2532 71.2453 70.9238C71.2453 71.166 71.2266 71.4082 71.1519 71.6317C71.2079 71.4082 71.2453 71.166 71.2453 70.9238C71.1706 71.3895 70.5725 71.6876 70.8155 72.2465L70.6847 72.619L70.6473 72.8239L70.6847 72.8426ZM72.1985 68.8747C72.1985 68.8747 72.1985 68.8188 72.1985 68.7815C72.1985 68.6698 72.2172 68.558 72.2358 68.4462C72.2358 68.558 72.1985 68.6698 72.1985 68.7815C72.1985 68.8188 72.1985 68.8374 72.1985 68.8747ZM70.722 76.1212C70.722 76.1212 70.7968 76.0281 70.8528 76.0094C70.9837 75.9536 71.0958 76.0467 71.0584 76.1957C71.0958 76.0467 70.9837 75.9536 70.8528 76.0094C70.7968 76.0281 70.7594 76.0653 70.722 76.1212ZM71.9555 150.748C71.9555 150.748 72.0303 150.636 72.0116 150.599C72.0116 150.636 71.9742 150.71 71.9555 150.748ZM72.9086 154.958C72.9086 154.958 72.9086 154.809 72.89 154.753C72.89 154.827 72.9086 154.902 72.9086 154.958ZM73.1329 151.772C73.2264 151.716 73.3011 151.381 73.2451 151.344C73.3011 151.381 73.2451 151.698 73.1329 151.772ZM74.1608 161.981L73.9926 161.906L74.1608 161.981ZM88.9252 209.391L89.0934 209.465L89.0186 209.633C89.0186 209.633 88.8878 209.595 88.8691 209.558C88.8691 209.521 88.9065 209.446 88.9252 209.409V209.391ZM86.2153 203.988C86.2153 203.988 86.3461 204.026 86.3648 204.063C86.3648 204.1 86.3461 204.193 86.3087 204.212C86.2713 204.212 86.1779 204.193 86.1592 204.137C86.1592 204.1 86.1966 204.026 86.2153 203.988ZM84.8697 198.008C84.8697 198.008 84.9818 198.046 85.0192 198.064C85.0192 198.064 84.907 197.99 84.8697 198.008C84.8323 198.008 84.8136 198.102 84.7949 198.158C84.8136 198.102 84.8323 198.027 84.8697 198.008ZM84.4398 200.002L84.2716 199.927L84.4398 200.002ZM84.0847 196.09L84.01 196.257L84.0847 196.09ZM79.9918 183.46C79.9918 183.46 80.0292 183.553 80.0292 183.59C80.0292 183.609 80.0105 183.627 79.9918 183.664C79.9918 183.646 80.0292 183.627 80.0292 183.59C80.0292 183.553 80.0292 183.497 79.9918 183.46ZM77.8799 178.132C77.8799 178.132 77.8052 178.243 77.8239 178.281C77.8239 178.243 77.8613 178.169 77.8799 178.132ZM77.095 174.052C77.2445 174.052 77.3006 174.182 77.3006 174.313C77.3006 174.369 77.2632 174.406 77.2445 174.443C77.2632 174.406 77.3006 174.369 77.3006 174.313C77.3006 174.182 77.2445 174.071 77.095 174.052C77.0202 174.052 76.9642 174.052 76.9081 174.089C76.9642 174.052 77.0202 174.052 77.095 174.052ZM76.8147 172.916C76.8147 172.916 76.6465 172.86 76.553 172.86C76.4783 172.86 76.4222 172.897 76.3661 172.934C76.4222 172.897 76.4783 172.878 76.553 172.86C76.6465 172.86 76.7586 172.86 76.8147 172.916ZM76.497 171.723C76.497 171.891 76.3848 172.003 76.1979 172.021C76.3661 172.003 76.497 171.891 76.497 171.723ZM84.0847 114.459C83.5988 114.608 83.0942 114.757 82.5896 114.832C81.8233 114.943 81.6178 115.335 81.6551 116.098C81.7112 117.831 81.6551 119.563 81.6925 121.314C81.6925 122.078 81.4309 122.358 80.6646 122.302C79.7675 122.246 78.8518 122.283 77.9547 122.302C76.7399 122.302 76.6838 122.264 76.6838 121.091C76.6838 117.235 76.6838 113.379 76.6838 109.522C76.6838 105.704 76.7025 101.866 76.6838 98.0471C76.6838 97.1716 76.9268 96.8176 77.8239 96.8735C81.6551 97.0971 85.5051 97.2275 89.1682 98.4942C90.9623 99.109 92.5883 100.152 93.4106 101.941C94.289 103.822 94.2142 105.797 93.2424 107.697C91.3174 111.46 87.972 113.323 84.1034 114.496L84.0847 114.459ZM120.865 120.849C119.893 121.463 118.884 122.041 117.912 122.674C117.258 123.103 116.847 122.916 116.51 122.283C115.781 120.923 115.053 119.582 114.305 118.241C113.875 117.458 113.427 116.676 113.015 115.875C112.772 115.409 112.38 115.39 111.931 115.484C108.362 115.651 104.792 115.837 101.223 116.005C100.793 116.024 100.512 116.191 100.326 116.601C99.3911 118.539 98.4192 120.439 97.5035 122.376C97.2605 122.879 97.0736 123.121 96.513 122.786C95.4851 122.19 94.4385 121.631 93.3919 121.072C92.906 120.811 92.8873 120.513 93.1489 120.048C94.4385 117.756 95.7093 115.465 96.9615 113.155C99.0173 109.317 101.017 105.461 103.11 101.642C104.138 99.7982 105.203 97.9726 106.157 96.0725C106.437 95.5136 106.829 95.3274 107.297 95.998C108.081 97.1343 108.661 98.3825 109.352 99.5747C110.623 101.736 111.95 103.841 113.109 106.057C114.249 108.274 115.538 110.417 116.865 112.522C118.36 114.906 119.687 117.402 121.108 119.843C121.369 120.29 121.239 120.588 120.865 120.811V120.849ZM142.918 101.158C139.442 102.239 137.031 104.642 135.237 107.66C134.115 109.522 133.387 111.627 133.368 113.863C133.349 116.303 133.237 118.744 133.48 121.184C133.573 122.041 133.218 122.339 132.396 122.302C131.405 122.264 130.396 122.246 129.406 122.302C128.527 122.358 128.172 122.059 128.228 121.165C128.284 119.824 128.228 118.464 128.228 117.123C128.191 115.241 128.509 113.341 128.023 111.46C127.126 108.013 125.612 104.977 122.622 102.853C121.65 102.183 120.584 101.661 119.519 101.102C119.108 100.879 118.902 100.692 119.108 100.208C119.557 99.1462 119.986 98.0844 120.435 97.0226C120.678 96.4264 121.089 96.3706 121.612 96.6127C125.967 98.5687 129.2 101.587 130.639 106.262C130.733 106.56 130.695 106.989 131.106 107.008C131.48 107.008 131.443 106.598 131.536 106.337C132.901 102.667 135.48 100.022 138.732 97.9726C139.629 97.4138 140.526 96.8549 141.572 96.5568C142.133 96.3892 142.507 96.501 142.638 97.1343C142.862 98.103 143.366 98.9786 143.553 99.9659C143.666 100.581 143.553 100.953 142.937 101.139L142.918 101.158ZM180.427 121.631C179.418 122.022 178.39 122.432 177.437 122.972C176.596 123.438 176.371 123.028 176.128 122.358C174.97 119.06 173.774 115.782 172.596 112.503C171.942 110.659 171.251 108.833 170.578 106.989C170.503 106.765 170.596 106.411 170.223 106.411C169.98 106.411 169.886 106.654 169.774 106.858C168.335 109.466 166.877 112.056 165.401 114.645C164.392 116.434 163.345 118.185 162.317 119.954C162.168 120.215 162.074 120.606 161.663 120.569C161.308 120.551 161.271 120.178 161.14 119.936C159.813 117.384 158.542 114.794 157.14 112.279C156.15 110.491 155.328 108.61 154.393 106.784C154.281 106.56 154.169 106.318 153.832 106.188C153.571 106.784 153.384 107.417 153.197 108.032C152.618 109.839 152.188 111.683 151.683 113.509C151.421 114.459 151.029 115.372 150.767 116.34C150.225 118.446 149.609 120.532 149.011 122.618C148.861 123.159 148.599 123.438 147.964 123.065C147.011 122.525 145.89 122.432 144.899 121.91C144.245 121.575 144.226 121.203 144.45 120.588C145.366 118.092 146.207 115.577 147.104 113.08C147.889 110.845 148.73 108.628 149.515 106.393C150.263 104.288 150.954 102.145 151.664 100.022C152.02 98.9599 152.562 97.9726 152.786 96.8549C152.842 96.5941 152.954 96.2588 153.328 96.2588C153.664 96.2588 153.664 96.5941 153.776 96.8176C154.486 98.1775 155.215 99.5374 155.926 100.897C157.103 103.17 158.243 105.461 159.458 107.715C160.355 109.373 160.972 111.18 162.149 112.727C162.953 112.149 163.14 111.18 163.607 110.398C165.046 107.976 166.317 105.461 167.681 102.984C168.69 101.158 169.718 99.3511 170.765 97.5442C170.914 97.2834 171.101 97.0226 171.437 97.0971C171.699 97.153 171.662 97.451 171.737 97.6559C172.409 99.4257 173.101 101.177 173.792 102.928C174.166 103.878 174.596 104.809 174.932 105.778C175.755 108.144 176.689 110.454 177.661 112.764C178.764 115.353 179.698 118.017 180.875 120.569C181.118 121.091 180.969 121.37 180.427 121.594V121.631ZM182.726 126.623C182.726 126.623 182.707 126.549 182.67 126.493C182.688 126.53 182.707 126.586 182.726 126.623ZM199.153 105.741C199.116 105.648 199.06 105.592 199.004 105.554C199.06 105.592 199.116 105.648 199.153 105.741Z" fill="#1731A6"/>
<path d="M67.3468 39.814H67.3019L67.3468 39.8364V39.814Z" fill="#1731A6"/>
<path d="M70.7972 72.8604L70.8347 72.6562C70.6658 72.6934 70.7033 72.7676 70.7972 72.8604Z" fill="#1731A6"/>
<path d="M43.9219 49.1656C43.9593 49.6872 44.3144 50.0412 44.8563 50.1343C45.6226 50.2647 45.8469 50.7863 45.9777 51.4942C46.7252 55.7788 46.3702 60.0634 45.959 64.3294C45.7908 65.9501 45.4731 67.4962 43.8284 68.3904C43.1556 68.7443 42.5763 69.2659 41.9408 69.713C41.6231 70.365 42.1277 70.5886 42.5763 70.7376C43.0809 70.9053 43.6229 70.8308 44.0714 70.57C45.3049 69.8434 46.501 69.0424 47.5476 68.0365C47.7345 67.8502 47.9027 67.6639 47.9587 67.4031C48.2391 65.8942 48.6128 64.3852 48.7624 62.8763C49.024 60.2497 48.9492 57.6044 48.8745 54.9778C48.8371 53.9159 48.781 52.8541 48.3699 51.8482C48.183 51.4197 47.9961 50.9726 47.4915 50.9167C46.7439 50.8422 46.501 50.3392 46.4075 49.7618C46.0898 47.5822 44.819 45.9429 43.2678 44.4898C42.3333 43.6143 41.3615 42.776 39.9224 42.9809C40.2214 43.279 40.5205 43.5584 40.8195 43.8565C42.352 45.3468 43.7724 46.8929 43.9406 49.2029L43.9219 49.1656Z" fill="#1731A6"/>
<path d="M24.8777 78.3754C25.0833 78.7107 25.4758 79.0833 25.0085 79.4745C24.4479 79.9216 24.6721 80.3687 25.0085 80.704C25.9243 81.6168 26.3355 82.7159 26.5411 83.9454C26.6158 84.3366 26.8214 84.7278 27.0083 85.1003C27.868 86.7769 28.9519 88.3231 29.7369 90.0556C30.0733 90.8007 30.3536 91.5459 29.9798 92.3655C29.8303 92.7008 29.9051 92.9803 30.1854 93.2224C31.0451 93.9303 31.9048 94.6568 32.7832 95.3834C33.7177 94.3402 33.1944 93.3156 32.7084 92.291C32.2599 91.3596 31.774 90.4468 31.3255 89.5153C30.4471 88.7888 30.0546 87.8015 29.7182 86.7583C29.3631 85.6592 29.1949 84.467 28.3352 83.5542C28.0549 83.2561 27.4942 82.7531 27.9054 82.306C28.5595 81.5795 28.2044 81.1511 27.7185 80.5922C27.326 80.1451 26.9896 79.6235 26.6719 79.1019C25.9617 77.8724 24.859 76.8292 25.0085 75.2272C25.0459 74.8918 24.8403 74.631 24.5039 74.6497C23.9433 74.6683 23.3265 74.5006 22.878 75.0222C22.878 75.283 22.9901 75.5066 23.1396 75.7301C23.7377 76.6057 24.3171 77.4812 24.859 78.394L24.8777 78.3754Z" fill="#1731A6"/>
<path d="M39.0814 89.6643C39.6982 90.3722 40.2962 91.1173 41.2307 91.434C41.268 89.8878 39.8477 88.6211 40.371 86.9817C40.371 86.9631 40.371 86.9072 40.3336 86.8886C39.4365 86.1248 39.6047 85.063 39.4739 84.0757C39.044 84.3924 38.6142 84.7277 38.1656 85.0444C38.1656 86.6464 38.9132 88.0995 39.0627 89.6643H39.0814Z" fill="#1731A6"/>
<path d="M34.7082 67.8502C34.7082 68.3531 34.7829 68.8375 35.381 68.9679C35.9603 69.0797 36.3341 68.8561 36.6145 68.3159C36.8574 67.8315 37.2686 67.8502 37.5863 68.2786C37.8666 68.6512 38.1843 68.8375 38.6516 68.7257C38.7263 68.0737 38.3899 67.6453 37.7919 67.8315C36.6332 68.1855 35.5492 67.9061 34.4465 67.6453C34.54 67.7198 34.7082 67.7943 34.7082 67.8688V67.8502Z" fill="#1731A6"/>
<path d="M31.1759 63.9568C31.2133 63.5097 31.1759 63.0813 31.0825 62.6528C31.0077 62.3361 30.9143 61.9822 30.5779 61.9263C30.2789 61.8704 30.1854 62.2616 29.9985 62.4665C30.2789 63.044 30.4471 63.7333 31.1759 63.9568Z" fill="#1731A6"/>
<path d="M31.7951 65.8755H31.7376L31.6992 65.914L31.7567 65.8947L31.7951 65.8755Z" fill="#1731A6"/>
<path d="M44.0901 106.467L44.1836 106.579L44.5574 107.306C44.9124 107.678 45.2862 107.809 45.6974 107.399C46.1272 106.97 45.9217 106.598 45.5479 106.262C45.1367 105.89 45.0433 105.405 45.0059 104.902L44.7816 104.642L44.4826 104.288C44.0154 103.189 43.3052 102.22 42.9314 101.084C42.1091 99.7423 41.0999 98.5315 40.371 97.1157C39.9412 96.2774 39.9038 95.2528 39.1001 94.6008C38.4834 95.0852 38.2591 95.6813 38.8385 96.2774C39.4739 96.9294 39.5674 97.7118 39.6047 98.5315L39.9038 99.1276C39.9785 99.2394 40.0346 99.3511 40.1094 99.4443C40.2215 99.6865 40.3336 99.9286 40.4458 100.152L40.5205 100.338C40.5953 100.469 40.6887 100.581 40.7635 100.711L41.0625 101.158C41.3615 101.493 41.5297 101.885 41.6605 102.294L42.053 102.872C42.2773 103.245 42.5202 103.617 42.595 104.064L42.9501 104.549L43.0435 104.679L43.3052 105.163L43.5481 105.704L43.6229 105.815L43.8659 106.132L44.1275 106.486L44.0901 106.467Z" fill="#1731A6"/>
<path d="M46.7813 100.394C47.043 100.692 47.2486 101.139 47.7719 100.972C48.3325 100.786 48.2391 100.283 48.2204 99.8355C47.7345 99.3325 47.1364 98.8668 46.9869 98.1589C46.501 95.8676 45.062 94.3587 43.1183 93.1851C43.3426 93.8557 43.4547 94.5449 43.735 95.1969C44.4078 96.7618 45.9777 97.805 46.2394 99.5933C46.2767 99.8727 46.5571 100.134 46.7627 100.376L46.7813 100.394Z" fill="#1731A6"/>
<path d="M43.6042 99.5935C44.0527 100.786 44.5947 101.941 45.7908 102.611L45.6974 102.351C45.2488 101.251 45.0806 99.9288 43.6042 99.5935Z" fill="#1731A6"/>
<path d="M64.8163 91.6203C64.9845 90.6516 65.1901 89.7015 65.5452 88.7701C65.6012 88.6024 65.6199 88.3602 65.377 88.2857C65.134 88.2298 65.0592 88.4348 64.9845 88.621C64.6855 89.5338 64.3677 90.428 64.3677 91.3967C64.3117 91.5644 64.2182 91.7879 64.4799 91.8624C64.6855 91.9183 64.7602 91.7507 64.7976 91.6016L64.8163 91.6203Z" fill="#1731A6"/>
<path d="M62.611 99.7239C62.9848 99.9474 63.1343 99.6307 63.2464 99.3699C63.452 98.867 63.6015 98.3454 63.7884 97.8238C63.751 97.6934 63.7323 97.5443 63.6576 97.4698C63.5081 97.358 63.3399 97.4326 63.2277 97.563C62.91 97.9914 62.5736 98.4385 62.3119 98.9042C62.1251 99.2395 62.3119 99.5376 62.611 99.7053V99.7239Z" fill="#1731A6"/>
<path d="M40.2589 92.6077C40.3897 93.0548 40.5205 93.5205 40.6513 93.9676C41.3428 93.3528 41.2681 93.1106 40.2589 92.6077Z" fill="#1731A6"/>
<path d="M63.7887 97.1531L63.7324 97.2087C63.7324 97.2459 63.7699 97.3015 63.7887 97.3387C63.8074 97.3201 63.845 97.3015 63.845 97.283C63.845 97.2459 63.8074 97.1902 63.7887 97.1531Z" fill="#1731A6"/>
<path d="M107.072 103.692C106.998 103.524 106.979 103.263 106.736 103.319C106.586 103.356 106.418 103.543 106.343 103.692C106.138 104.083 106.082 104.53 105.876 104.94C104.774 107.175 103.708 109.429 102.643 111.683C102.344 112.317 102.55 112.485 103.204 112.429C104.512 112.317 105.839 112.261 107.11 112.168C108.306 112.168 109.465 112.168 110.642 112.168C110.922 112.168 111.408 112.224 111.09 111.665C109.614 109.075 108.399 106.356 107.11 103.692H107.072Z" fill="#1731A6"/>
<path d="M87.0376 101.773C85.6733 100.674 83.9353 100.432 82.2159 100.413C81.6926 100.413 81.7299 100.804 81.7486 101.177C81.7486 102.779 81.7486 104.381 81.7486 105.983C81.7486 107.585 81.7486 109.187 81.7486 110.789C81.7486 111.385 81.9168 111.609 82.5336 111.46C84.6454 110.92 86.6078 110.025 87.8226 108.2C89.3177 105.909 89.6728 103.878 87.0563 101.773H87.0376Z" fill="#1731A6"/>
</g>
<defs>
<clipPath id="clip0_115_2287">
<rect width="627" height="213" fill="white"/>
</clipPath>
</defs>
</svg>
